<svg width="32" height="33" viewBox="0 0 32 33" fill="none" xmlns="http://www.w3.org/2000/svg">
<rect x="0.0292969" y="0.421875" width="31.6081" height="31.6081" rx="15.804" fill="url(#paint0_radial_2003_458)"/>
<path fill-rule="evenodd" clip-rule="evenodd" d="M7.93164 16.2258C7.93164 13.0692 7.93164 11.4909 8.68382 10.3542C9.0197 9.84653 9.45444 9.41179 9.96207 9.07591C11.0989 8.32373 12.6771 8.32373 15.8337 8.32373C18.9902 8.32373 20.5685 8.32373 21.7053 9.07591C22.2129 9.41179 22.6476 9.84653 22.9835 10.3542C23.7357 11.4909 23.7357 13.0692 23.7357 16.2258C23.7357 19.3823 23.7357 20.9606 22.9835 22.0973C22.6476 22.605 22.2129 23.0397 21.7053 23.3756C20.5685 24.1278 18.9902 24.1278 15.8337 24.1278C12.6771 24.1278 11.0989 24.1278 9.96207 23.3756C9.45444 23.0397 9.0197 22.605 8.68382 22.0973C7.93164 20.9606 7.93164 19.3823 7.93164 16.2258ZM19.9244 16.2261C19.9244 18.4854 18.0928 20.317 15.8334 20.317C13.574 20.317 11.7424 18.4854 11.7424 16.2261C11.7424 13.9667 13.574 12.1351 15.8334 12.1351C18.0928 12.1351 19.9244 13.9667 19.9244 16.2261ZM15.8334 18.9329C17.3283 18.9329 18.5403 17.721 18.5403 16.2261C18.5403 14.7311 17.3283 13.5192 15.8334 13.5192C14.3384 13.5192 13.1265 14.7311 13.1265 16.2261C13.1265 17.721 14.3384 18.9329 15.8334 18.9329ZM20.0861 12.8906C20.617 12.8906 21.0473 12.4603 21.0473 11.9294C21.0473 11.3985 20.617 10.9681 20.0861 10.9681C19.5552 10.9681 19.1248 11.3985 19.1248 11.9294C19.1248 12.4603 19.5552 12.8906 20.0861 12.8906Z" fill="white"/>
<defs>
<radialGradient id="paint0_radial_2003_458" cx="0" cy="0" r="1" gradientUnits="userSpaceOnUse" gradientTransform="translate(8.42524 34.4645) rotate(-90) scale(31.326 29.1356)">
<stop stop-color="#FFDD55"/>
<stop offset="0.1" stop-color="#FFDD55"/>
<stop offset="0.5" stop-color="#FF543E"/>
<stop offset="1" stop-color="#C837AB"/>
</radialGradient>
</defs>
</svg>
