<svg width="33" height="33" viewBox="0 0 33 33" fill="none" xmlns="http://www.w3.org/2000/svg">
<rect x="0.856934" y="0.421875" width="31.6081" height="31.6081" rx="15.804" fill="#0A66C2"/>
<path d="M8.75879 10.4486C8.75879 9.9418 8.93677 9.52371 9.29271 9.19431C9.64865 8.86489 10.1114 8.7002 10.6809 8.7002C11.2403 8.7002 11.6928 8.86236 12.0386 9.18671C12.3945 9.52118 12.5725 9.95701 12.5725 10.4942C12.5725 10.9807 12.3996 11.3861 12.0538 11.7105C11.6979 12.045 11.2301 12.2122 10.6504 12.2122H10.6351C10.0758 12.2122 9.62324 12.045 9.27745 11.7105C8.93167 11.376 8.75879 10.9554 8.75879 10.4486ZM8.9571 23.7517V13.5957H12.3437V23.7517H8.9571ZM14.22 23.7517H17.6066V18.0808C17.6066 17.726 17.6473 17.4523 17.7287 17.2598C17.871 16.9151 18.0871 16.6237 18.377 16.3856C18.6668 16.1474 19.0304 16.0283 19.4677 16.0283C20.6067 16.0283 21.1763 16.7935 21.1763 18.324V23.7517H24.5628V17.9287C24.5628 16.4286 24.2069 15.2909 23.495 14.5155C22.7831 13.7402 21.8424 13.3525 20.6728 13.3525C19.3609 13.3525 18.3388 13.915 17.6066 15.0401V15.0705H17.5914L17.6066 15.0401V13.5957H14.22C14.2404 13.9201 14.2505 14.9286 14.2505 16.6212C14.2505 18.3139 14.2404 20.6907 14.22 23.7517Z" fill="white"/>
</svg>
