<svg width="32" height="33" viewBox="0 0 32 33" fill="none" xmlns="http://www.w3.org/2000/svg">
<rect x="0.20166" y="0.421875" width="31.6081" height="31.6081" rx="15.804" fill="#2494FB"/>
<path d="M18.6633 9.81779V9.81494H19.4043L19.6751 9.86902C19.8556 9.90413 20.0195 9.95014 20.1667 10.0071C20.314 10.064 20.4565 10.1304 20.5943 10.2063C20.732 10.2822 20.857 10.3595 20.9691 10.4383C21.0802 10.5161 21.18 10.5986 21.2683 10.6859C21.3557 10.7741 21.4921 10.7969 21.6773 10.7542C21.8626 10.7115 22.0621 10.6522 22.2759 10.5763C22.4896 10.5004 22.701 10.415 22.91 10.3201C23.119 10.2253 23.2463 10.165 23.2919 10.1394C23.3366 10.1129 23.3603 10.0986 23.3632 10.0967L23.366 10.0924L23.3803 10.0853L23.3945 10.0782L23.4088 10.0711L23.423 10.064L23.4259 10.0597L23.4302 10.0569L23.4345 10.054L23.4373 10.0498L23.4515 10.0455L23.4658 10.0426L23.463 10.064L23.4587 10.0853L23.4515 10.1067L23.4444 10.128L23.4373 10.1423L23.4302 10.1565L23.423 10.1778C23.4183 10.1921 23.4135 10.211 23.4088 10.2348C23.404 10.2585 23.3589 10.3533 23.2734 10.5194C23.1879 10.6854 23.081 10.8538 22.9528 11.0246C22.8245 11.1954 22.7096 11.3244 22.6079 11.4117C22.5053 11.4999 22.4374 11.5616 22.4041 11.5967C22.3709 11.6327 22.3305 11.6659 22.283 11.6963L22.2117 11.7432L22.1975 11.7504L22.1832 11.7575L22.1804 11.7617L22.1761 11.7646L22.1718 11.7674L22.169 11.7717L22.1547 11.7788L22.1405 11.7859L22.1376 11.7902L22.1333 11.7931L22.1291 11.7959L22.1262 11.8002L22.1234 11.8044L22.1191 11.8073L22.1148 11.8101L22.112 11.8144H22.1832L22.5822 11.729C22.8483 11.6721 23.1024 11.6033 23.3447 11.5227L23.7294 11.3946L23.7722 11.3804L23.7936 11.3732L23.8078 11.3661L23.8221 11.359L23.8363 11.3519L23.8506 11.3448L23.8791 11.3405L23.9076 11.3377V11.3661L23.9004 11.369L23.8933 11.3732L23.8905 11.3775L23.8862 11.3804L23.8819 11.3832L23.8791 11.3875L23.8762 11.3917L23.8719 11.3946L23.8677 11.3974L23.8648 11.4017L23.862 11.406L23.8577 11.4088L23.8506 11.423L23.8434 11.4373L23.8392 11.4401C23.8373 11.443 23.7769 11.5236 23.6582 11.6821C23.5394 11.8414 23.4753 11.9221 23.4658 11.924C23.4563 11.9268 23.443 11.9411 23.4259 11.9667C23.4097 11.9932 23.309 12.099 23.1238 12.284C22.9385 12.469 22.7571 12.6336 22.5794 12.7778C22.4008 12.923 22.3105 13.1014 22.3086 13.3129C22.3058 13.5235 22.2949 13.7617 22.2759 14.0273C22.2569 14.293 22.2212 14.58 22.169 14.8883C22.1167 15.1966 22.036 15.5453 21.9267 15.9343C21.8175 16.3233 21.6845 16.7028 21.5277 17.0728C21.3709 17.4428 21.2071 17.7748 21.036 18.0689C20.865 18.363 20.7083 18.6121 20.5658 18.8161C20.4233 19.02 20.2784 19.2122 20.1311 19.3924C19.9839 19.5727 19.7977 19.7757 19.5725 20.0015C19.3464 20.2264 19.2229 20.3497 19.202 20.3715C19.1801 20.3924 19.087 20.4702 18.9227 20.6049C18.7593 20.7406 18.5835 20.8762 18.3954 21.0119C18.2082 21.1466 18.0363 21.2591 17.8795 21.3492C17.7228 21.4393 17.5337 21.5422 17.3123 21.658C17.0919 21.7747 16.8535 21.8828 16.5969 21.9825C16.3404 22.0821 16.0697 22.1746 15.7847 22.26C15.4996 22.3454 15.2241 22.4118 14.9581 22.4592C14.6921 22.5066 14.3905 22.547 14.0532 22.5802L13.5473 22.63V22.6371H12.621V22.63L12.4999 22.6229C12.4191 22.6181 12.3526 22.6134 12.3004 22.6086C12.2481 22.6039 12.051 22.5778 11.7089 22.5304C11.3669 22.4829 11.0985 22.4355 10.9038 22.3881C10.709 22.3406 10.4193 22.2505 10.0345 22.1177C9.64972 21.9848 9.32053 21.8506 9.04691 21.7149C8.77425 21.5802 8.60325 21.4948 8.53389 21.4588C8.46548 21.4237 8.38853 21.38 8.30303 21.3278L8.17477 21.2496L8.17193 21.2453L8.16764 21.2425L8.16337 21.2396L8.16052 21.2353L8.14627 21.2282L8.13202 21.2211L8.12918 21.2168L8.12489 21.214L8.12062 21.2111L8.11777 21.2069L8.11493 21.2026L8.11064 21.1998H8.10352V21.1713L8.11777 21.1741L8.13202 21.1784L8.19615 21.1855C8.2389 21.1903 8.35528 21.1974 8.54529 21.2069C8.73531 21.2164 8.93718 21.2164 9.15094 21.2069C9.3647 21.1974 9.58322 21.176 9.80648 21.1428C10.0297 21.1096 10.2934 21.0527 10.5974 20.9721C10.9014 20.8914 11.1807 20.7956 11.4353 20.6846C11.689 20.5727 11.8695 20.4892 11.9769 20.4341C12.0833 20.3801 12.2457 20.2795 12.4642 20.1324L12.792 19.9119L12.7949 19.9076L12.7991 19.9047L12.8034 19.9019L12.8063 19.8976L12.8091 19.8934L12.8134 19.8905L12.8177 19.8877L12.8205 19.8834L12.8348 19.8791L12.849 19.8763L12.8519 19.862L12.8561 19.8478L12.8604 19.845L12.8633 19.8407L12.7492 19.8336C12.6733 19.8288 12.5996 19.8241 12.5284 19.8194C12.4571 19.8146 12.3455 19.7933 12.1935 19.7553C12.0415 19.7174 11.8776 19.6604 11.7018 19.5845C11.5261 19.5086 11.3551 19.4185 11.1888 19.3141C11.0225 19.2098 10.9024 19.123 10.8283 19.0537C10.7551 18.9854 10.6601 18.8886 10.5432 18.7634C10.4273 18.6372 10.3266 18.5077 10.2411 18.3749C10.1556 18.2421 10.0739 18.0888 9.99603 17.9152L9.87773 17.6562L9.8706 17.6349L9.86348 17.6135L9.8592 17.5993L9.85635 17.5851L9.87773 17.5879L9.89911 17.5922L10.0559 17.6135C10.1604 17.6278 10.3243 17.6325 10.5475 17.6278C10.7708 17.623 10.9252 17.6135 11.0107 17.5993C11.0962 17.5851 11.1484 17.5756 11.1674 17.5708L11.1959 17.5637L11.2315 17.5566L11.2672 17.5495L11.27 17.5452L11.2743 17.5424L11.2786 17.5395L11.2814 17.5353L11.2529 17.5282L11.2244 17.521L11.1959 17.5139L11.1674 17.5068L11.1389 17.4997C11.1199 17.495 11.0867 17.4855 11.0392 17.4712C10.9917 17.457 10.8634 17.4048 10.6544 17.3147C10.4454 17.2246 10.2791 17.1368 10.1556 17.0514C10.0318 16.9658 9.91374 16.8721 9.8022 16.7711C9.69105 16.6686 9.56897 16.5367 9.43596 16.3754C9.30296 16.2142 9.1842 16.0268 9.07969 15.8133C8.97519 15.5999 8.89681 15.3959 8.84455 15.2014C8.79251 15.008 8.75817 14.8104 8.74196 14.6108L8.7163 14.3119L8.73055 14.3148L8.7448 14.3191L8.75905 14.3262L8.7733 14.3333L8.78755 14.3404L8.8018 14.3475L9.02269 14.4471C9.16995 14.5136 9.35283 14.5705 9.57134 14.6179C9.78986 14.6653 9.92048 14.6914 9.96323 14.6962L10.0274 14.7033H10.1556L10.1528 14.699L10.1485 14.6962L10.1442 14.6933L10.1414 14.6891L10.1385 14.6848L10.1342 14.682L10.13 14.6791L10.1271 14.6748L10.1129 14.6677L10.0986 14.6606L10.0958 14.6563L10.0915 14.6535L10.0872 14.6506L10.0844 14.6464L10.0701 14.6393L10.0559 14.6321L10.053 14.6279C10.0502 14.626 10.0093 14.5956 9.93046 14.5368C9.85255 14.477 9.77085 14.3997 9.68535 14.3048C9.59984 14.21 9.51434 14.1103 9.42883 14.006C9.34317 13.9014 9.26687 13.7895 9.20082 13.6715C9.13433 13.553 9.06401 13.4021 8.98991 13.219C8.91676 13.0368 8.86118 12.8533 8.82318 12.6683C8.78518 12.4833 8.76381 12.3006 8.75905 12.1204C8.7543 11.9401 8.75905 11.7859 8.7733 11.6579C8.78755 11.5298 8.81605 11.3851 8.8588 11.2238C8.90156 11.0625 8.96332 10.8918 9.04406 10.7115L9.16519 10.4411L9.17232 10.4198L9.17944 10.3984L9.18373 10.3956L9.18657 10.3913L9.18942 10.387L9.1937 10.3842L9.19799 10.387L9.20082 10.3913L9.20367 10.3956L9.20795 10.3984L9.21224 10.4013L9.21507 10.4055L9.21792 10.4098L9.2222 10.4126L9.22932 10.4269L9.23645 10.4411L9.24074 10.444L9.24357 10.4482L9.43596 10.6617C9.56421 10.804 9.71623 10.9629 9.89198 11.1384C10.0677 11.3139 10.1651 11.405 10.1841 11.4117C10.2031 11.4192 10.2269 11.4411 10.2554 11.4771C10.2839 11.5122 10.3789 11.5962 10.5404 11.729C10.7019 11.8618 10.9133 12.016 11.1745 12.1915C11.4358 12.367 11.7256 12.5402 12.0438 12.711C12.3621 12.8817 12.7041 13.0359 13.0699 13.1735C13.4357 13.311 13.6922 13.4012 13.8394 13.4439C13.9867 13.4865 14.2384 13.5411 14.5947 13.6075C14.951 13.6739 15.2194 13.7166 15.3999 13.7356C15.5804 13.7546 15.7039 13.7655 15.7704 13.7683L15.8702 13.7712L15.8673 13.7498L15.863 13.7285L15.8345 13.5506C15.8155 13.432 15.806 13.266 15.806 13.0525C15.806 12.839 15.8227 12.6422 15.8559 12.4619C15.8892 12.2816 15.939 12.099 16.0055 11.914C16.072 11.729 16.1371 11.5805 16.2008 11.4686C16.2654 11.3576 16.3499 11.2309 16.4544 11.0886C16.559 10.9463 16.6943 10.7993 16.8606 10.6475C17.0268 10.4957 17.2169 10.3605 17.4306 10.2419C17.6444 10.1233 17.8415 10.0331 18.022 9.97148C18.2025 9.90982 18.3545 9.86949 18.478 9.85052C18.6015 9.83155 18.6633 9.82063 18.6633 9.81779Z" fill="white"/>
</svg>
