<svg width="33" height="33" viewBox="0 0 33 33" fill="none" xmlns="http://www.w3.org/2000/svg">
<rect x="0.685059" y="0.421875" width="31.6081" height="31.6081" rx="15.804" fill="#FF2532"/>
<path d="M16.8742 22.354L13.3076 22.2873C12.1528 22.2641 10.9952 22.3104 9.86302 22.0698C8.14076 21.7102 8.01875 19.9473 7.89108 18.4685C7.71516 16.3896 7.78327 14.2729 8.11525 12.2112C8.30266 11.0545 9.04021 10.3642 10.1808 10.2891C14.0312 10.0165 17.9071 10.0488 21.7489 10.176C22.1547 10.1876 22.5632 10.2514 22.9633 10.3239C24.9382 10.6776 24.9863 12.6755 25.1144 14.3572C25.242 16.0564 25.1881 17.7642 24.9441 19.4518C24.7483 20.849 24.3738 22.0208 22.793 22.1339C20.8125 22.2818 18.8774 22.4009 16.8912 22.363C16.8913 22.354 16.8799 22.354 16.8742 22.354ZM14.7774 18.8165C16.2699 17.9408 17.734 17.0796 19.218 16.2098C17.7227 15.3341 16.2614 14.4729 14.7774 13.6031V18.8165Z" fill="white"/>
</svg>
