<svg width="70" height="70" viewBox="0 0 70 70" fill="none" xmlns="http://www.w3.org/2000/svg">
<circle cx="35" cy="35" r="35" fill="#22A75D"/>
<g clip-path="url(#clip0_210_40)">
<path d="M45.766 27.566C45.4006 27.4138 44.9981 27.3738 44.6099 27.4511C44.2217 27.5284 43.8653 27.7194 43.586 28L41 30.586L36.414 26C36.0389 25.6251 35.5303 25.4144 35 25.4144C34.4697 25.4144 33.9611 25.6251 33.586 26L29 30.586L26.414 28C26.1343 27.7204 25.778 27.53 25.3901 27.4528C25.0022 27.3757 24.6001 27.4153 24.2347 27.5666C23.8693 27.718 23.557 27.9743 23.3372 28.3031C23.1174 28.6319 23.0001 29.0185 23 29.414V40C23.0016 41.3256 23.5289 42.5964 24.4662 43.5338C25.4036 44.4711 26.6744 44.9984 28 45H42C43.3256 44.9984 44.5964 44.4711 45.5338 43.5338C46.4711 42.5964 46.9984 41.3256 47 40V29.414C47.0001 29.0185 46.8829 28.6318 46.6633 28.3029C46.4436 27.9739 46.1314 27.7175 45.766 27.566V27.566Z" fill="#191F30"/>
</g>
<defs>
<clipPath id="clip0_210_40">
<rect width="24" height="24" fill="white" transform="translate(23 23)"/>
</clipPath>
</defs>
</svg>
