<svg width="99" height="18" viewBox="0 0 99 18" fill="none" xmlns="http://www.w3.org/2000/svg">
<path d="M1.14844 3.94434H3.0625V12.1748H5.85156V14H1.14844V3.94434ZM14.5605 10.8213H8.56543C8.65202 11.3499 8.88216 11.7715 9.25586 12.0859C9.63411 12.3958 10.1149 12.5508 10.6982 12.5508C11.3955 12.5508 11.9948 12.307 12.4961 11.8193L14.0684 12.5576C13.6764 13.1136 13.207 13.526 12.6602 13.7949C12.1133 14.0592 11.4639 14.1914 10.7119 14.1914C9.54525 14.1914 8.59505 13.8245 7.86133 13.0908C7.1276 12.3525 6.76074 11.4297 6.76074 10.3223C6.76074 9.1875 7.12533 8.24642 7.85449 7.49902C8.58822 6.74707 9.50651 6.37109 10.6094 6.37109C11.7806 6.37109 12.7331 6.74707 13.4668 7.49902C14.2005 8.24642 14.5674 9.23535 14.5674 10.4658L14.5605 10.8213ZM12.6875 9.35156C12.5645 8.93685 12.3206 8.59961 11.9561 8.33984C11.596 8.08008 11.1768 7.9502 10.6982 7.9502C10.1787 7.9502 9.72298 8.09603 9.33105 8.3877C9.08496 8.56999 8.8571 8.89128 8.64746 9.35156H12.6875ZM21.5742 6.5625H23.4336V14H21.5742V13.2139C21.2096 13.5602 20.8428 13.8109 20.4736 13.9658C20.109 14.1162 19.7126 14.1914 19.2842 14.1914C18.3226 14.1914 17.4909 13.82 16.7891 13.0771C16.0872 12.3298 15.7363 11.4023 15.7363 10.2949C15.7363 9.14648 16.0758 8.2054 16.7549 7.47168C17.4339 6.73796 18.2588 6.37109 19.2295 6.37109C19.6761 6.37109 20.0954 6.4554 20.4873 6.62402C20.8792 6.79264 21.2415 7.04557 21.5742 7.38281V6.5625ZM19.6123 8.09375C19.0335 8.09375 18.5527 8.29883 18.1699 8.70898C17.7871 9.11458 17.5957 9.63639 17.5957 10.2744C17.5957 10.917 17.7894 11.4456 18.1768 11.8604C18.5687 12.2751 19.0495 12.4824 19.6191 12.4824C20.207 12.4824 20.6947 12.2796 21.082 11.874C21.4694 11.4639 21.6631 10.9284 21.6631 10.2676C21.6631 9.62044 21.4694 9.09635 21.082 8.69531C20.6947 8.29427 20.2048 8.09375 19.6123 8.09375ZM24.8828 6.5625H26.4824V7.49902C26.6556 7.12988 26.8857 6.84961 27.1729 6.6582C27.46 6.4668 27.7744 6.37109 28.1162 6.37109C28.3577 6.37109 28.6107 6.4349 28.875 6.5625L28.2939 8.16895C28.0752 8.05957 27.8952 8.00488 27.7539 8.00488C27.4668 8.00488 27.223 8.18262 27.0225 8.53809C26.8265 8.89355 26.7285 9.59082 26.7285 10.6299L26.7354 10.9922V14H24.8828V6.5625ZM29.8047 6.5625H31.6641V7.32129C32.0879 6.96582 32.4707 6.71973 32.8125 6.58301C33.1589 6.44173 33.512 6.37109 33.8721 6.37109C34.6104 6.37109 35.237 6.62858 35.752 7.14355C36.1849 7.58105 36.4014 8.22819 36.4014 9.08496V14H34.5557V10.7393C34.5557 9.85059 34.5146 9.26042 34.4326 8.96875C34.3551 8.67708 34.2161 8.45605 34.0156 8.30566C33.8197 8.15072 33.5758 8.07324 33.2842 8.07324C32.9059 8.07324 32.5801 8.20085 32.3066 8.45605C32.0378 8.70671 31.8509 9.05534 31.7461 9.50195C31.6914 9.73438 31.6641 10.238 31.6641 11.0127V14H29.8047V6.5625ZM43.3125 3.94434H45.1855L47.5098 10.958L49.8682 3.94434H51.7139L53.4092 14H51.5635L50.4834 7.64941L48.3438 14H46.6553L44.543 7.64941L43.4424 14H41.5762L43.3125 3.94434ZM58.2354 6.37109C58.9372 6.37109 59.5957 6.54655 60.2109 6.89746C60.8307 7.24837 61.3138 7.72461 61.6602 8.32617C62.0065 8.92773 62.1797 9.57715 62.1797 10.2744C62.1797 10.9762 62.0042 11.6325 61.6533 12.2432C61.307 12.8538 60.833 13.3324 60.2314 13.6787C59.6299 14.0205 58.9668 14.1914 58.2422 14.1914C57.1758 14.1914 56.2643 13.8132 55.5078 13.0566C54.7559 12.2956 54.3799 11.3727 54.3799 10.2881C54.3799 9.12598 54.806 8.15755 55.6582 7.38281C56.4056 6.70833 57.2646 6.37109 58.2354 6.37109ZM58.2627 8.12793C57.6839 8.12793 57.2008 8.33073 56.8135 8.73633C56.4307 9.13737 56.2393 9.65234 56.2393 10.2812C56.2393 10.9284 56.4284 11.4525 56.8066 11.8535C57.1895 12.2546 57.6725 12.4551 58.2559 12.4551C58.8392 12.4551 59.3245 12.2523 59.7119 11.8467C60.0993 11.4411 60.293 10.9193 60.293 10.2812C60.293 9.64323 60.1016 9.12598 59.7188 8.72949C59.3405 8.32845 58.8551 8.12793 58.2627 8.12793ZM63.2734 6.5625H64.873V7.49902C65.0462 7.12988 65.2764 6.84961 65.5635 6.6582C65.8506 6.4668 66.165 6.37109 66.5068 6.37109C66.7484 6.37109 67.0013 6.4349 67.2656 6.5625L66.6846 8.16895C66.4658 8.05957 66.2858 8.00488 66.1445 8.00488C65.8574 8.00488 65.6136 8.18262 65.4131 8.53809C65.2171 8.89355 65.1191 9.59082 65.1191 10.6299L65.126 10.9922V14H63.2734V6.5625ZM75.6465 10.8213H69.6514C69.738 11.3499 69.9681 11.7715 70.3418 12.0859C70.7201 12.3958 71.2008 12.5508 71.7842 12.5508C72.4814 12.5508 73.0807 12.307 73.582 11.8193L75.1543 12.5576C74.7624 13.1136 74.293 13.526 73.7461 13.7949C73.1992 14.0592 72.5498 14.1914 71.7979 14.1914C70.6312 14.1914 69.681 13.8245 68.9473 13.0908C68.2135 12.3525 67.8467 11.4297 67.8467 10.3223C67.8467 9.1875 68.2113 8.24642 68.9404 7.49902C69.6742 6.74707 70.5924 6.37109 71.6953 6.37109C72.8665 6.37109 73.819 6.74707 74.5527 7.49902C75.2865 8.24642 75.6533 9.23535 75.6533 10.4658L75.6465 10.8213ZM73.7734 9.35156C73.6504 8.93685 73.4066 8.59961 73.042 8.33984C72.682 8.08008 72.2627 7.9502 71.7842 7.9502C71.2646 7.9502 70.8089 8.09603 70.417 8.3877C70.1709 8.56999 69.943 8.89128 69.7334 9.35156H73.7734Z" fill="#22A75D"/>
<path d="M0 15.9141H76.2139V17.1719H0V15.9141Z" fill="#22A75D"/>
<path fill-rule="evenodd" clip-rule="evenodd" d="M91.7073 4.62627C91.3167 4.23574 90.6836 4.23574 90.2931 4.62627C89.9025 5.01679 89.9025 5.64996 90.2931 6.04048L93.2526 9.00004H86.3335C85.7812 9.00004 85.3335 9.44776 85.3335 10C85.3335 10.5523 85.7812 11 86.3335 11H93.2526L90.2931 13.9596C89.9025 14.3501 89.9025 14.9833 90.2931 15.3738C90.6836 15.7643 91.3167 15.7643 91.7073 15.3738L96.3736 10.7075L96.3739 10.7071M96.591 9.61726C96.5422 9.49931 96.4698 9.38881 96.3739 9.29293L91.7073 4.62627M96.3761 10.705C96.5558 10.5242 96.6668 10.2751 96.6668 10C96.6668 9.86445 96.6398 9.73516 96.591 9.61726" fill="#22A75D"/>
</svg>
