<svg width="70" height="70" viewBox="0 0 70 70" fill="none" xmlns="http://www.w3.org/2000/svg">
<circle cx="35" cy="35" r="35" fill="#2278D4"/>
<g clip-path="url(#clip0_202_20)">
<path d="M24.3267 35.4001L27.8867 38.0001L26.5347 42.1871C26.3162 42.8365 26.3134 43.5391 26.5268 44.1902C26.7402 44.8413 27.1583 45.406 27.7187 45.8001C28.2696 46.2069 28.9371 46.4248 29.6219 46.4214C30.3066 46.4179 30.9719 46.1933 31.5187 45.7811L34.9997 43.2191L38.4817 45.7781C39.0316 46.1825 39.6955 46.4022 40.3781 46.4055C41.0607 46.4089 41.7267 46.1957 42.2805 45.7966C42.8342 45.3975 43.2472 44.8331 43.46 44.1846C43.6728 43.536 43.6744 42.8366 43.4647 42.1871L42.1127 38.0001L45.6727 35.4001C46.2218 34.9986 46.6301 34.4338 46.8391 33.7865C47.048 33.1391 47.0471 32.4423 46.8364 31.7955C46.6257 31.1487 46.2159 30.585 45.6657 30.185C45.1155 29.785 44.453 29.569 43.7727 29.5681H39.3997L38.0727 25.4321C37.864 24.781 37.454 24.2131 36.9017 23.8101C36.3494 23.4072 35.6834 23.1901 34.9997 23.1901C34.316 23.1901 33.65 23.4072 33.0977 23.8101C32.5454 24.2131 32.1354 24.781 31.9267 25.4321L30.5997 29.5681H26.2307C25.5504 29.569 24.8879 29.785 24.3377 30.185C23.7875 30.585 23.3777 31.1487 23.167 31.7955C22.9563 32.4423 22.9554 33.1391 23.1644 33.7865C23.3733 34.4338 23.7816 34.9986 24.3307 35.4001H24.3267Z" fill="#191F30"/>
</g>
<defs>
<clipPath id="clip0_202_20">
<rect width="24" height="24" fill="white" transform="translate(23 23)"/>
</clipPath>
</defs>
</svg>
