<svg width="120" height="120" viewBox="0 0 120 120" fill="none" xmlns="http://www.w3.org/2000/svg">
<g filter="url(#filter0_d_202_20)">
<circle cx="60" cy="45" r="35" fill="#2278D4"/>
</g>
<g clip-path="url(#clip0_202_20)">
<path d="M49.3267 45.4001L52.8867 48.0001L51.5347 52.1871C51.3162 52.8365 51.3134 53.5391 51.5268 54.1902C51.7402 54.8413 52.1583 55.406 52.7187 55.8001C53.2696 56.2069 53.9371 56.4248 54.6219 56.4214C55.3066 56.4179 55.9719 56.1933 56.5187 55.7811L59.9997 53.2191L63.4817 55.7781C64.0316 56.1825 64.6955 56.4022 65.3781 56.4055C66.0607 56.4089 66.7267 56.1957 67.2805 55.7966C67.8342 55.3975 68.2472 54.8331 68.46 54.1846C68.6728 53.536 68.6744 52.8366 68.4647 52.1871L67.1127 48.0001L70.6727 45.4001C71.2218 44.9986 71.6301 44.4338 71.8391 43.7865C72.048 43.1391 72.0471 42.4423 71.8364 41.7955C71.6257 41.1487 71.2159 40.585 70.6657 40.185C70.1155 39.785 69.453 39.569 68.7727 39.5681H64.3997L63.0727 35.4321C62.864 34.781 62.454 34.2131 61.9017 33.8101C61.3494 33.4072 60.6834 33.1901 59.9997 33.1901C59.316 33.1901 58.65 33.4072 58.0977 33.8101C57.5454 34.2131 57.1354 34.781 56.9267 35.4321L55.5997 39.5681H51.2307C50.5504 39.569 49.8879 39.785 49.3377 40.185C48.7875 40.585 48.3777 41.1487 48.167 41.7955C47.9563 42.4423 47.9554 43.1391 48.1644 43.7865C48.3733 44.4338 48.7816 44.9986 49.3307 45.4001H49.3267Z" fill="#191F30"/>
</g>
<defs>
<filter id="filter0_d_202_20" x="0" y="0" width="120" height="120" filterUnits="userSpaceOnUse" color-interpolation-filters="sRGB">
<feFlood flood-opacity="0" result="BackgroundImageFix"/>
<feColorMatrix in="SourceAlpha" type="matrix" values="0 0 0 0 0 0 0 0 0 0 0 0 0 0 0 0 0 0 127 0" result="hardAlpha"/>
<feOffset dy="15"/>
<feGaussianBlur stdDeviation="12.5"/>
<feColorMatrix type="matrix" values="0 0 0 0 0.133333 0 0 0 0 0.470588 0 0 0 0 0.831373 0 0 0 0.25 0"/>
<feBlend mode="normal" in2="BackgroundImageFix" result="effect1_dropShadow_202_20"/>
<feBlend mode="normal" in="SourceGraphic" in2="effect1_dropShadow_202_20" result="shape"/>
</filter>
<clipPath id="clip0_202_20">
<rect width="24" height="24" fill="white" transform="translate(48 33)"/>
</clipPath>
</defs>
</svg>
