<svg width="335" height="465" viewBox="0 0 335 465" fill="none" xmlns="http://www.w3.org/2000/svg">
<rect y="20.001" width="335" height="445" rx="25" fill="white"/>
<path opacity="0.08" d="M141.457 89.4043L140.894 90.2308L140.897 90.2331L141.457 89.4043ZM157.277 110.674L156.345 111.034L156.347 111.041L157.277 110.674ZM157.189 190.479L156.261 190.108L156.259 190.113L157.189 190.479ZM141.984 211.572L142.556 212.393L142.561 212.389L141.984 211.572ZM83.0977 100.039L82.2765 99.4684L82.2733 99.4729L83.0977 100.039ZM106.652 109.883L107.286 110.657L107.294 110.65L106.652 109.883ZM102.521 186.084L101.67 186.609L101.676 186.618L102.521 186.084ZM131.965 186.523L131.107 186.01L131.105 186.013L131.965 186.523ZM132.58 115.508L131.719 116.017L131.723 116.022L132.58 115.508ZM117.111 83.4609C126.375 83.4609 134.287 85.731 140.894 90.2308L142.02 88.5778C135.034 83.8198 126.715 81.4609 117.111 81.4609V83.4609ZM140.897 90.2331C147.547 94.723 152.709 101.628 156.345 111.034L158.21 110.313C154.463 100.618 149.078 93.3434 142.017 88.5755L140.897 90.2331ZM156.347 111.041C160.03 120.364 161.902 133.462 161.902 150.4H163.902C163.902 133.355 162.024 119.968 158.207 110.306L156.347 111.041ZM161.902 150.4C161.902 167.515 160.001 180.728 156.261 190.108L158.118 190.849C161.995 181.127 163.902 167.622 163.902 150.4H161.902ZM156.259 190.113C152.558 199.538 147.592 206.387 141.407 210.756L142.561 212.389C149.15 207.734 154.321 200.521 158.12 190.844L156.259 190.113ZM141.412 210.752C135.231 215.062 127.388 217.252 117.814 217.252V219.252C127.694 219.252 135.964 216.989 142.556 212.393L141.412 210.752ZM117.814 217.252C108.245 217.252 100.278 215.034 93.8561 210.658L92.7299 212.311C99.5496 216.958 107.931 219.252 117.814 219.252V217.252ZM93.8561 210.658C87.4326 206.281 82.356 199.601 78.6623 190.54L76.8103 191.295C80.6167 200.633 85.9112 207.664 92.7299 212.311L93.8561 210.658ZM78.6623 190.54C74.9841 181.517 73.1113 168.572 73.1113 151.631H71.1113C71.1113 168.674 72.9886 181.92 76.8103 191.295L78.6623 190.54ZM73.1113 151.631C73.1113 127.957 76.7735 111.013 83.922 100.605L82.2733 99.4729C74.7734 110.393 71.1113 127.844 71.1113 151.631H73.1113ZM83.9188 100.61C91.8724 89.1658 102.9 83.4609 117.111 83.4609V81.4609C102.26 81.4609 90.612 87.4749 82.2765 99.4684L83.9188 100.61ZM117.727 104.84C113.329 104.84 109.411 106.272 106.011 109.116L107.294 110.65C110.339 108.103 113.803 106.84 117.727 106.84V104.84ZM106.019 109.109C102.56 111.939 100.024 116.748 98.302 123.341L100.237 123.847C101.913 117.432 104.3 113.1 107.286 110.657L106.019 109.109ZM98.302 123.341C96.57 129.97 95.7207 139.594 95.7207 152.158H97.7207C97.7207 139.644 98.5706 130.225 100.237 123.847L98.302 123.341ZM95.7207 152.158C95.7207 168.515 97.6428 180.079 101.67 186.609L103.373 185.559C99.6658 179.549 97.7207 168.496 97.7207 152.158H95.7207ZM101.676 186.618C105.746 193.057 111.105 196.4 117.727 196.4V194.4C111.926 194.4 107.148 191.533 103.367 185.55L101.676 186.618ZM117.727 196.4C124.115 196.4 129.161 193.201 132.825 187.034L131.105 186.013C127.737 191.682 123.291 194.4 117.727 194.4V196.4ZM132.823 187.037C137.248 179.642 139.381 167.453 139.381 150.664H137.381C137.381 167.39 135.237 179.108 131.107 186.01L132.823 187.037ZM139.381 150.664C139.381 142.135 138.896 134.899 137.917 128.968C136.941 123.048 135.463 118.368 133.438 114.993L131.723 116.022C133.565 119.093 134.987 123.495 135.944 129.294C136.899 135.082 137.381 142.201 137.381 150.664H139.381ZM133.441 114.999C129.5 108.33 124.259 104.84 117.727 104.84V106.84C123.382 106.84 128.043 109.795 131.719 116.017L133.441 114.999ZM199.377 127.373V128.373H200.343L200.376 127.408L199.377 127.373ZM175.383 127.373L174.384 127.327L174.336 128.373H175.383V127.373ZM188.479 94.502L189.18 95.2142L189.18 95.2142L188.479 94.502ZM240.51 87.4707L240.022 88.3437L240.032 88.3493L240.51 87.4707ZM254.924 101.797L254.055 102.292L254.061 102.302L254.924 101.797ZM253.781 145.566L252.886 145.122L252.883 145.126L253.781 145.566ZM229.875 176.943L229.154 176.25L229.149 176.255L229.875 176.943ZM215.373 192.236L214.647 191.548L213.047 193.236H215.373V192.236ZM261.428 192.236H262.428V191.236H261.428V192.236ZM261.428 215V216H262.428V215H261.428ZM171.867 215H170.867V216H171.867V215ZM171.867 203.223L171.153 202.523L170.867 202.814V203.223H171.867ZM211.857 162.441L211.146 161.739L211.143 161.741L211.857 162.441ZM231.105 138.887L230.225 138.412L230.224 138.415L231.105 138.887ZM230.93 110.41L230.223 111.117L230.229 111.124L230.235 111.13L230.93 110.41ZM199.377 126.373H175.383V128.373H199.377V126.373ZM176.382 127.419C177.017 113.665 181.313 102.968 189.18 95.2142L187.777 93.7897C179.472 101.974 175.037 113.191 174.384 127.327L176.382 127.419ZM189.18 95.2142C197.116 87.3926 207.283 83.4609 219.768 83.4609V81.4609C206.822 81.4609 196.13 85.5566 187.777 93.7897L189.18 95.2142ZM219.768 83.4609C227.474 83.4609 234.215 85.0987 240.022 88.3436L240.998 86.5978C234.851 83.163 227.765 81.4609 219.768 81.4609V83.4609ZM240.032 88.3493C245.895 91.537 250.568 96.1757 254.055 102.292L255.793 101.302C252.131 94.879 247.195 89.9669 240.987 86.5922L240.032 88.3493ZM254.061 102.302C257.615 108.378 259.373 114.533 259.373 120.781H261.373C261.373 114.138 259.499 107.638 255.787 101.292L254.061 102.302ZM259.373 120.781C259.373 128.265 257.231 136.374 252.886 145.122L254.677 146.011C259.121 137.064 261.373 128.649 261.373 120.781H259.373ZM252.883 145.126C248.614 153.838 240.727 164.21 229.154 176.25L230.596 177.636C242.227 165.536 250.277 154.99 254.679 146.006L252.883 145.126ZM229.149 176.255L214.647 191.548L216.099 192.924L230.601 177.631L229.149 176.255ZM215.373 193.236H261.428V191.236H215.373V193.236ZM260.428 192.236V215H262.428V192.236H260.428ZM261.428 214H171.867V216H261.428V214ZM172.867 215V203.223H170.867V215H172.867ZM172.581 203.923L212.571 163.142L211.143 161.741L171.153 202.523L172.581 203.923ZM212.569 163.144C222.249 153.347 228.752 145.41 231.987 139.358L230.224 138.415C227.131 144.199 220.802 151.966 211.146 161.739L212.569 163.144ZM231.986 139.361C235.256 133.296 236.939 127.74 236.939 122.715H234.939C234.939 127.3 233.4 132.525 230.225 138.412L231.986 139.361ZM236.939 122.715C236.939 117.485 235.175 113.116 231.624 109.691L230.235 111.13C233.365 114.149 234.939 117.984 234.939 122.715H236.939ZM231.637 109.703C228.144 106.21 223.63 104.488 218.186 104.488V106.488C223.171 106.488 227.153 108.047 230.223 111.117L231.637 109.703ZM218.186 104.488C212.628 104.488 207.962 106.572 204.257 110.71L205.747 112.044C209.073 108.33 213.196 106.488 218.186 106.488V104.488ZM204.257 110.71C200.546 114.854 198.618 120.433 198.378 127.338L200.376 127.408C200.605 120.837 202.427 115.751 205.747 112.044L204.257 110.71Z" fill="#191B21"/>
<path d="M94.6094 220.016H99.25C101.76 220.016 103.568 220.25 104.672 220.719C105.786 221.177 106.661 221.927 107.297 222.969C107.943 224 108.266 225.24 108.266 226.688C108.266 228.292 107.844 229.625 107 230.688C106.167 231.75 105.031 232.49 103.594 232.906C102.75 233.146 101.214 233.266 98.9844 233.266V243H94.6094V220.016ZM98.9844 229H100.375C101.469 229 102.229 228.922 102.656 228.766C103.083 228.609 103.417 228.354 103.656 228C103.906 227.635 104.031 227.198 104.031 226.688C104.031 225.802 103.688 225.156 103 224.75C102.5 224.448 101.573 224.297 100.219 224.297H98.9844V229ZM112.109 219.438H116.344V227.719C117.177 227 118.016 226.464 118.859 226.109C119.703 225.745 120.557 225.562 121.422 225.562C123.109 225.562 124.531 226.146 125.688 227.312C126.677 228.323 127.172 229.807 127.172 231.766V243H122.969V235.547C122.969 233.578 122.875 232.245 122.688 231.547C122.5 230.849 122.177 230.328 121.719 229.984C121.271 229.641 120.714 229.469 120.047 229.469C119.182 229.469 118.438 229.755 117.812 230.328C117.198 230.901 116.771 231.682 116.531 232.672C116.406 233.182 116.344 234.349 116.344 236.172V243H112.109V219.438ZM143.875 226H148.125V243H143.875V241.203C143.042 241.995 142.203 242.568 141.359 242.922C140.526 243.266 139.62 243.438 138.641 243.438C136.443 243.438 134.542 242.589 132.938 240.891C131.333 239.182 130.531 237.062 130.531 234.531C130.531 231.906 131.307 229.755 132.859 228.078C134.411 226.401 136.297 225.562 138.516 225.562C139.536 225.562 140.495 225.755 141.391 226.141C142.286 226.526 143.115 227.104 143.875 227.875V226ZM139.391 229.5C138.068 229.5 136.969 229.969 136.094 230.906C135.219 231.833 134.781 233.026 134.781 234.484C134.781 235.953 135.224 237.161 136.109 238.109C137.005 239.057 138.104 239.531 139.406 239.531C140.75 239.531 141.865 239.068 142.75 238.141C143.635 237.203 144.078 235.979 144.078 234.469C144.078 232.99 143.635 231.792 142.75 230.875C141.865 229.958 140.745 229.5 139.391 229.5ZM162.844 228.375L160.203 231.016C159.13 229.953 158.156 229.422 157.281 229.422C156.802 229.422 156.427 229.526 156.156 229.734C155.885 229.932 155.75 230.182 155.75 230.484C155.75 230.714 155.833 230.927 156 231.125C156.177 231.312 156.604 231.573 157.281 231.906L158.844 232.688C160.49 233.5 161.62 234.328 162.234 235.172C162.849 236.016 163.156 237.005 163.156 238.141C163.156 239.651 162.599 240.911 161.484 241.922C160.38 242.932 158.896 243.438 157.031 243.438C154.552 243.438 152.573 242.469 151.094 240.531L153.719 237.672C154.219 238.255 154.802 238.729 155.469 239.094C156.146 239.448 156.745 239.625 157.266 239.625C157.828 239.625 158.281 239.49 158.625 239.219C158.969 238.948 159.141 238.635 159.141 238.281C159.141 237.625 158.521 236.984 157.281 236.359L155.844 235.641C153.094 234.255 151.719 232.521 151.719 230.438C151.719 229.094 152.234 227.948 153.266 227C154.307 226.042 155.635 225.562 157.25 225.562C158.354 225.562 159.391 225.807 160.359 226.297C161.339 226.776 162.167 227.469 162.844 228.375ZM183.562 235.734H169.859C170.057 236.943 170.583 237.906 171.438 238.625C172.302 239.333 173.401 239.688 174.734 239.688C176.328 239.688 177.698 239.13 178.844 238.016L182.438 239.703C181.542 240.974 180.469 241.917 179.219 242.531C177.969 243.135 176.484 243.438 174.766 243.438C172.099 243.438 169.927 242.599 168.25 240.922C166.573 239.234 165.734 237.125 165.734 234.594C165.734 232 166.568 229.849 168.234 228.141C169.911 226.422 172.01 225.562 174.531 225.562C177.208 225.562 179.385 226.422 181.062 228.141C182.74 229.849 183.578 232.109 183.578 234.922L183.562 235.734ZM179.281 232.375C179 231.427 178.443 230.656 177.609 230.062C176.786 229.469 175.828 229.172 174.734 229.172C173.547 229.172 172.505 229.505 171.609 230.172C171.047 230.589 170.526 231.323 170.047 232.375H179.281ZM194.203 220.016H206.906V224.328H202.719V243H198.281V224.328H194.203V220.016ZM207.547 226H211.719L215.141 235.672L218.828 226H221.375L224.984 235.562L228.406 226H232.609L226.406 243H223.703L220.078 233.312L216.344 243H213.672L207.547 226ZM243.016 225.562C244.62 225.562 246.125 225.964 247.531 226.766C248.948 227.568 250.052 228.656 250.844 230.031C251.635 231.406 252.031 232.891 252.031 234.484C252.031 236.089 251.63 237.589 250.828 238.984C250.036 240.38 248.953 241.474 247.578 242.266C246.203 243.047 244.688 243.438 243.031 243.438C240.594 243.438 238.51 242.573 236.781 240.844C235.062 239.104 234.203 236.995 234.203 234.516C234.203 231.859 235.177 229.646 237.125 227.875C238.833 226.333 240.797 225.562 243.016 225.562ZM243.078 229.578C241.755 229.578 240.651 230.042 239.766 230.969C238.891 231.885 238.453 233.062 238.453 234.5C238.453 235.979 238.885 237.177 239.75 238.094C240.625 239.01 241.729 239.469 243.062 239.469C244.396 239.469 245.505 239.005 246.391 238.078C247.276 237.151 247.719 235.958 247.719 234.5C247.719 233.042 247.281 231.859 246.406 230.953C245.542 230.036 244.432 229.578 243.078 229.578Z" fill="#191B21"/>
<path opacity="0.8" d="M87.6172 265.219C88.4557 265.219 89.1771 265.424 89.7812 265.836C90.3906 266.247 90.8594 266.878 91.1875 267.727C91.5208 268.57 91.6875 269.747 91.6875 271.258C91.6875 272.784 91.5182 273.971 91.1797 274.82C90.8464 275.669 90.3958 276.294 89.8281 276.695C89.2604 277.091 88.5443 277.289 87.6797 277.289C86.8151 277.289 86.0885 277.089 85.5 276.688C84.9115 276.286 84.4505 275.677 84.1172 274.859C83.7839 274.042 83.6172 272.878 83.6172 271.367C83.6172 269.258 83.9427 267.729 84.5938 266.781C85.3177 265.74 86.3255 265.219 87.6172 265.219ZM87.6719 267.297C87.3021 267.297 86.974 267.417 86.6875 267.656C86.401 267.891 86.1823 268.297 86.0312 268.875C85.8802 269.453 85.8047 270.299 85.8047 271.414C85.8047 272.867 85.9766 273.872 86.3203 274.43C86.6693 274.982 87.1198 275.258 87.6719 275.258C88.2031 275.258 88.625 274.995 88.9375 274.469C89.3177 273.833 89.5078 272.771 89.5078 271.281C89.5078 269.771 89.3359 268.729 88.9922 268.156C88.6536 267.583 88.2135 267.297 87.6719 267.297ZM92.4844 279.047L97.6484 265.18H99.1641L93.9922 279.047H92.4844ZM103.945 265.219C104.784 265.219 105.505 265.424 106.109 265.836C106.719 266.247 107.188 266.878 107.516 267.727C107.849 268.57 108.016 269.747 108.016 271.258C108.016 272.784 107.846 273.971 107.508 274.82C107.174 275.669 106.724 276.294 106.156 276.695C105.589 277.091 104.872 277.289 104.008 277.289C103.143 277.289 102.417 277.089 101.828 276.688C101.24 276.286 100.779 275.677 100.445 274.859C100.112 274.042 99.9453 272.878 99.9453 271.367C99.9453 269.258 100.271 267.729 100.922 266.781C101.646 265.74 102.654 265.219 103.945 265.219ZM104 267.297C103.63 267.297 103.302 267.417 103.016 267.656C102.729 267.891 102.51 268.297 102.359 268.875C102.208 269.453 102.133 270.299 102.133 271.414C102.133 272.867 102.305 273.872 102.648 274.43C102.997 274.982 103.448 275.258 104 275.258C104.531 275.258 104.953 274.995 105.266 274.469C105.646 273.833 105.836 272.771 105.836 271.281C105.836 269.771 105.664 268.729 105.32 268.156C104.982 267.583 104.542 267.297 104 267.297ZM113.766 265.219H115.953V272.617H116.977V274.641H115.953V277H113.812V274.641H108.797V272.617L113.766 265.219ZM113.812 272.617V268.766L111.188 272.617H113.812ZM117.781 279.047L122.945 265.18H124.461L119.289 279.047H117.781ZM127.586 269.211H125.453C125.51 267.971 125.898 266.997 126.617 266.289C127.341 265.576 128.268 265.219 129.398 265.219C130.096 265.219 130.711 265.367 131.242 265.664C131.779 265.956 132.206 266.38 132.523 266.938C132.846 267.49 133.008 268.052 133.008 268.625C133.008 269.307 132.812 270.042 132.422 270.828C132.036 271.615 131.328 272.544 130.297 273.617L129.008 274.977H133.102V277H125.141V275.953L128.695 272.328C129.555 271.458 130.125 270.76 130.406 270.234C130.693 269.703 130.836 269.224 130.836 268.797C130.836 268.354 130.688 267.99 130.391 267.703C130.099 267.411 129.721 267.266 129.258 267.266C128.789 267.266 128.398 267.44 128.086 267.789C127.773 268.138 127.607 268.612 127.586 269.211ZM138.211 265.219C139.049 265.219 139.771 265.424 140.375 265.836C140.984 266.247 141.453 266.878 141.781 267.727C142.115 268.57 142.281 269.747 142.281 271.258C142.281 272.784 142.112 273.971 141.773 274.82C141.44 275.669 140.99 276.294 140.422 276.695C139.854 277.091 139.138 277.289 138.273 277.289C137.409 277.289 136.682 277.089 136.094 276.688C135.505 276.286 135.044 275.677 134.711 274.859C134.378 274.042 134.211 272.878 134.211 271.367C134.211 269.258 134.536 267.729 135.188 266.781C135.911 265.74 136.919 265.219 138.211 265.219ZM138.266 267.297C137.896 267.297 137.568 267.417 137.281 267.656C136.995 267.891 136.776 268.297 136.625 268.875C136.474 269.453 136.398 270.299 136.398 271.414C136.398 272.867 136.57 273.872 136.914 274.43C137.263 274.982 137.714 275.258 138.266 275.258C138.797 275.258 139.219 274.995 139.531 274.469C139.911 273.833 140.102 272.771 140.102 271.281C140.102 269.771 139.93 268.729 139.586 268.156C139.247 267.583 138.807 267.297 138.266 267.297ZM145.523 269.211H143.391C143.448 267.971 143.836 266.997 144.555 266.289C145.279 265.576 146.206 265.219 147.336 265.219C148.034 265.219 148.648 265.367 149.18 265.664C149.716 265.956 150.143 266.38 150.461 266.938C150.784 267.49 150.945 268.052 150.945 268.625C150.945 269.307 150.75 270.042 150.359 270.828C149.974 271.615 149.266 272.544 148.234 273.617L146.945 274.977H151.039V277H143.078V275.953L146.633 272.328C147.492 271.458 148.062 270.76 148.344 270.234C148.63 269.703 148.773 269.224 148.773 268.797C148.773 268.354 148.625 267.99 148.328 267.703C148.036 267.411 147.659 267.266 147.195 267.266C146.727 267.266 146.336 267.44 146.023 267.789C145.711 268.138 145.544 268.612 145.523 269.211ZM154.336 265.508H157.609V277H155.438V267.562H153.07L154.336 265.508ZM166.531 271.773H170.5V273.758H166.531V271.773ZM178.992 265.508H182.266V277H180.094V267.562H177.727L178.992 265.508ZM189.969 265.219L191.828 266.148L189.82 270.055C190.794 270.055 191.622 270.404 192.305 271.102C192.987 271.799 193.328 272.667 193.328 273.703C193.328 274.703 192.977 275.552 192.273 276.25C191.576 276.943 190.732 277.289 189.742 277.289C188.706 277.289 187.841 276.93 187.148 276.211C186.461 275.487 186.117 274.659 186.117 273.727C186.117 273.372 186.169 273.016 186.273 272.656C186.383 272.297 186.63 271.745 187.016 271L189.969 265.219ZM189.695 272.125C189.289 272.125 188.948 272.273 188.672 272.57C188.396 272.862 188.258 273.229 188.258 273.672C188.258 274.115 188.401 274.487 188.688 274.789C188.979 275.091 189.318 275.242 189.703 275.242C190.109 275.242 190.458 275.094 190.75 274.797C191.042 274.5 191.188 274.125 191.188 273.672C191.188 273.229 191.044 272.862 190.758 272.57C190.477 272.273 190.122 272.125 189.695 272.125ZM194.641 279.047L199.805 265.18H201.32L196.148 279.047H194.641ZM206.102 265.219C206.94 265.219 207.661 265.424 208.266 265.836C208.875 266.247 209.344 266.878 209.672 267.727C210.005 268.57 210.172 269.747 210.172 271.258C210.172 272.784 210.003 273.971 209.664 274.82C209.331 275.669 208.88 276.294 208.312 276.695C207.745 277.091 207.029 277.289 206.164 277.289C205.299 277.289 204.573 277.089 203.984 276.688C203.396 276.286 202.935 275.677 202.602 274.859C202.268 274.042 202.102 272.878 202.102 271.367C202.102 269.258 202.427 267.729 203.078 266.781C203.802 265.74 204.81 265.219 206.102 265.219ZM206.156 267.297C205.786 267.297 205.458 267.417 205.172 267.656C204.885 267.891 204.667 268.297 204.516 268.875C204.365 269.453 204.289 270.299 204.289 271.414C204.289 272.867 204.461 273.872 204.805 274.43C205.154 274.982 205.604 275.258 206.156 275.258C206.688 275.258 207.109 274.995 207.422 274.469C207.802 273.833 207.992 272.771 207.992 271.281C207.992 269.771 207.82 268.729 207.477 268.156C207.138 267.583 206.698 267.297 206.156 267.297ZM215.922 265.219H218.109V272.617H219.133V274.641H218.109V277H215.969V274.641H210.953V272.617L215.922 265.219ZM215.969 272.617V268.766L213.344 272.617H215.969ZM219.938 279.047L225.102 265.18H226.617L221.445 279.047H219.938ZM229.742 269.211H227.609C227.667 267.971 228.055 266.997 228.773 266.289C229.497 265.576 230.424 265.219 231.555 265.219C232.253 265.219 232.867 265.367 233.398 265.664C233.935 265.956 234.362 266.38 234.68 266.938C235.003 267.49 235.164 268.052 235.164 268.625C235.164 269.307 234.969 270.042 234.578 270.828C234.193 271.615 233.484 272.544 232.453 273.617L231.164 274.977H235.258V277H227.297V275.953L230.852 272.328C231.711 271.458 232.281 270.76 232.562 270.234C232.849 269.703 232.992 269.224 232.992 268.797C232.992 268.354 232.844 267.99 232.547 267.703C232.255 267.411 231.878 267.266 231.414 267.266C230.945 267.266 230.555 267.44 230.242 267.789C229.93 268.138 229.763 268.612 229.742 269.211ZM240.367 265.219C241.206 265.219 241.927 265.424 242.531 265.836C243.141 266.247 243.609 266.878 243.938 267.727C244.271 268.57 244.438 269.747 244.438 271.258C244.438 272.784 244.268 273.971 243.93 274.82C243.596 275.669 243.146 276.294 242.578 276.695C242.01 277.091 241.294 277.289 240.43 277.289C239.565 277.289 238.839 277.089 238.25 276.688C237.661 276.286 237.201 275.677 236.867 274.859C236.534 274.042 236.367 272.878 236.367 271.367C236.367 269.258 236.693 267.729 237.344 266.781C238.068 265.74 239.076 265.219 240.367 265.219ZM240.422 267.297C240.052 267.297 239.724 267.417 239.438 267.656C239.151 267.891 238.932 268.297 238.781 268.875C238.63 269.453 238.555 270.299 238.555 271.414C238.555 272.867 238.727 273.872 239.07 274.43C239.419 274.982 239.87 275.258 240.422 275.258C240.953 275.258 241.375 274.995 241.688 274.469C242.068 273.833 242.258 272.771 242.258 271.281C242.258 269.771 242.086 268.729 241.742 268.156C241.404 267.583 240.964 267.297 240.422 267.297ZM247.68 269.211H245.547C245.604 267.971 245.992 266.997 246.711 266.289C247.435 265.576 248.362 265.219 249.492 265.219C250.19 265.219 250.805 265.367 251.336 265.664C251.872 265.956 252.299 266.38 252.617 266.938C252.94 267.49 253.102 268.052 253.102 268.625C253.102 269.307 252.906 270.042 252.516 270.828C252.13 271.615 251.422 272.544 250.391 273.617L249.102 274.977H253.195V277H245.234V275.953L248.789 272.328C249.648 271.458 250.219 270.76 250.5 270.234C250.786 269.703 250.93 269.224 250.93 268.797C250.93 268.354 250.781 267.99 250.484 267.703C250.193 267.411 249.815 267.266 249.352 267.266C248.883 267.266 248.492 267.44 248.18 267.789C247.867 268.138 247.701 268.612 247.68 269.211ZM256.492 265.508H259.766V277H257.594V267.562H255.227L256.492 265.508Z" fill="#191B21"/>
<path opacity="0.8" d="M101.391 373.859L102.367 373.273C103.055 374.539 103.849 375.172 104.75 375.172C105.135 375.172 105.497 375.083 105.836 374.906C106.174 374.724 106.432 374.482 106.609 374.18C106.786 373.878 106.875 373.557 106.875 373.219C106.875 372.833 106.745 372.456 106.484 372.086C106.125 371.576 105.469 370.961 104.516 370.242C103.557 369.518 102.961 368.995 102.727 368.672C102.32 368.13 102.117 367.544 102.117 366.914C102.117 366.414 102.237 365.958 102.477 365.547C102.716 365.135 103.052 364.812 103.484 364.578C103.922 364.339 104.396 364.219 104.906 364.219C105.448 364.219 105.953 364.354 106.422 364.625C106.896 364.891 107.396 365.383 107.922 366.102L106.984 366.812C106.552 366.24 106.182 365.862 105.875 365.68C105.573 365.497 105.242 365.406 104.883 365.406C104.419 365.406 104.039 365.547 103.742 365.828C103.451 366.109 103.305 366.456 103.305 366.867C103.305 367.117 103.357 367.359 103.461 367.594C103.565 367.828 103.755 368.083 104.031 368.359C104.182 368.505 104.677 368.888 105.516 369.508C106.51 370.242 107.193 370.896 107.562 371.469C107.932 372.042 108.117 372.617 108.117 373.195C108.117 374.029 107.799 374.753 107.164 375.367C106.534 375.982 105.766 376.289 104.859 376.289C104.161 376.289 103.529 376.104 102.961 375.734C102.393 375.359 101.87 374.734 101.391 373.859ZM114.391 367.281C115.698 367.281 116.781 367.755 117.641 368.703C118.422 369.568 118.812 370.591 118.812 371.773C118.812 372.961 118.398 374 117.57 374.891C116.747 375.776 115.688 376.219 114.391 376.219C113.089 376.219 112.023 375.776 111.195 374.891C110.372 374 109.961 372.961 109.961 371.773C109.961 370.596 110.352 369.576 111.133 368.711C111.992 367.758 113.078 367.281 114.391 367.281ZM114.391 368.352C113.484 368.352 112.706 368.688 112.055 369.359C111.404 370.031 111.078 370.844 111.078 371.797C111.078 372.411 111.227 372.984 111.523 373.516C111.82 374.047 112.221 374.458 112.727 374.75C113.232 375.036 113.786 375.18 114.391 375.18C114.995 375.18 115.549 375.036 116.055 374.75C116.56 374.458 116.961 374.047 117.258 373.516C117.555 372.984 117.703 372.411 117.703 371.797C117.703 370.844 117.375 370.031 116.719 369.359C116.068 368.688 115.292 368.352 114.391 368.352ZM124.352 364.219V365.289C123.951 365.117 123.607 365.031 123.32 365.031C123.107 365.031 122.93 365.076 122.789 365.164C122.648 365.247 122.56 365.346 122.523 365.461C122.487 365.57 122.469 365.867 122.469 366.352V367.5H124.242V368.438H122.461V376H121.367V368.438H120.25V367.5H121.367V366.172C121.367 365.562 121.422 365.128 121.531 364.867C121.646 364.607 121.836 364.398 122.102 364.242C122.372 364.081 122.698 364 123.078 364C123.432 364 123.857 364.073 124.352 364.219ZM126.836 364.344H127.938V367.5H129.672V368.438H127.938V376H126.836V368.438H125.344V367.5H126.836V364.344ZM143.992 369.266L143.125 369.805C142.375 368.81 141.352 368.312 140.055 368.312C139.018 368.312 138.156 368.646 137.469 369.312C136.786 369.979 136.445 370.789 136.445 371.742C136.445 372.362 136.602 372.945 136.914 373.492C137.232 374.039 137.664 374.464 138.211 374.766C138.763 375.068 139.38 375.219 140.062 375.219C141.312 375.219 142.333 374.721 143.125 373.727L143.992 374.297C143.586 374.906 143.039 375.38 142.352 375.719C141.669 376.052 140.891 376.219 140.016 376.219C138.672 376.219 137.557 375.792 136.672 374.938C135.786 374.083 135.344 373.044 135.344 371.82C135.344 370.997 135.549 370.234 135.961 369.531C136.378 368.823 136.948 368.271 137.672 367.875C138.396 367.479 139.206 367.281 140.102 367.281C140.664 367.281 141.206 367.367 141.727 367.539C142.253 367.711 142.698 367.935 143.062 368.211C143.427 368.487 143.737 368.839 143.992 369.266ZM154.57 367.5V376H153.492V374.539C153.034 375.096 152.518 375.516 151.945 375.797C151.378 376.078 150.755 376.219 150.078 376.219C148.875 376.219 147.846 375.784 146.992 374.914C146.143 374.039 145.719 372.977 145.719 371.727C145.719 370.503 146.148 369.456 147.008 368.586C147.867 367.716 148.901 367.281 150.109 367.281C150.807 367.281 151.438 367.43 152 367.727C152.568 368.023 153.065 368.469 153.492 369.062V367.5H154.57ZM150.195 368.336C149.586 368.336 149.023 368.487 148.508 368.789C147.992 369.086 147.581 369.505 147.273 370.047C146.971 370.589 146.82 371.161 146.82 371.766C146.82 372.365 146.974 372.938 147.281 373.484C147.589 374.031 148 374.458 148.516 374.766C149.036 375.068 149.594 375.219 150.188 375.219C150.786 375.219 151.354 375.068 151.891 374.766C152.427 374.464 152.839 374.055 153.125 373.539C153.417 373.023 153.562 372.443 153.562 371.797C153.562 370.812 153.237 369.99 152.586 369.328C151.94 368.667 151.143 368.336 150.195 368.336ZM157.055 367.5H158.141V369.062C158.573 368.469 159.07 368.023 159.633 367.727C160.195 367.43 160.823 367.281 161.516 367.281C162.724 367.281 163.758 367.716 164.617 368.586C165.477 369.456 165.906 370.503 165.906 371.727C165.906 372.977 165.479 374.039 164.625 374.914C163.776 375.784 162.75 376.219 161.547 376.219C160.87 376.219 160.247 376.078 159.68 375.797C159.112 375.516 158.599 375.096 158.141 374.539V379.109H157.055V367.5ZM161.43 368.336C160.482 368.336 159.682 368.667 159.031 369.328C158.385 369.99 158.062 370.812 158.062 371.797C158.062 372.443 158.206 373.023 158.492 373.539C158.784 374.055 159.198 374.464 159.734 374.766C160.276 375.068 160.846 375.219 161.445 375.219C162.034 375.219 162.586 375.068 163.102 374.766C163.622 374.458 164.036 374.031 164.344 373.484C164.651 372.938 164.805 372.365 164.805 371.766C164.805 371.161 164.651 370.589 164.344 370.047C164.042 369.505 163.633 369.086 163.117 368.789C162.602 368.487 162.039 368.336 161.43 368.336ZM169.164 367.281C169.43 367.281 169.656 367.375 169.844 367.562C170.031 367.75 170.125 367.979 170.125 368.25C170.125 368.521 170.031 368.75 169.844 368.938C169.656 369.125 169.43 369.219 169.164 369.219C168.898 369.219 168.672 369.125 168.484 368.938C168.297 368.75 168.203 368.521 168.203 368.25C168.203 367.984 168.297 367.758 168.484 367.57C168.672 367.378 168.898 367.281 169.164 367.281ZM169.164 374.281C169.43 374.281 169.656 374.375 169.844 374.562C170.031 374.75 170.125 374.979 170.125 375.25C170.125 375.516 170.031 375.745 169.844 375.938C169.656 376.125 169.43 376.219 169.164 376.219C168.898 376.219 168.672 376.125 168.484 375.938C168.297 375.745 168.203 375.516 168.203 375.25C168.203 374.979 168.297 374.75 168.484 374.562C168.672 374.375 168.898 374.281 169.164 374.281ZM177.727 364.508H183.109V366.523H179.359L178.891 368.617C179.021 368.581 179.148 368.555 179.273 368.539C179.398 368.518 179.518 368.508 179.633 368.508C180.674 368.508 181.539 368.865 182.227 369.578C182.919 370.286 183.266 371.195 183.266 372.305C183.266 373.424 182.883 374.37 182.117 375.141C181.357 375.906 180.43 376.289 179.336 376.289C178.357 376.289 177.516 376.01 176.812 375.453C176.109 374.896 175.648 374.133 175.43 373.164H177.727C177.904 373.523 178.135 373.797 178.422 373.984C178.714 374.167 179.034 374.258 179.383 374.258C179.867 374.258 180.279 374.083 180.617 373.734C180.956 373.385 181.125 372.938 181.125 372.391C181.125 371.859 180.966 371.424 180.648 371.086C180.336 370.742 179.956 370.57 179.508 370.57C179.268 370.57 179.031 370.63 178.797 370.75C178.568 370.87 178.341 371.049 178.117 371.289L176.336 370.891L177.727 364.508ZM188.469 364.219C189.307 364.219 190.029 364.424 190.633 364.836C191.242 365.247 191.711 365.878 192.039 366.727C192.372 367.57 192.539 368.747 192.539 370.258C192.539 371.784 192.37 372.971 192.031 373.82C191.698 374.669 191.247 375.294 190.68 375.695C190.112 376.091 189.396 376.289 188.531 376.289C187.667 376.289 186.94 376.089 186.352 375.688C185.763 375.286 185.302 374.677 184.969 373.859C184.635 373.042 184.469 371.878 184.469 370.367C184.469 368.258 184.794 366.729 185.445 365.781C186.169 364.74 187.177 364.219 188.469 364.219ZM188.523 366.297C188.154 366.297 187.826 366.417 187.539 366.656C187.253 366.891 187.034 367.297 186.883 367.875C186.732 368.453 186.656 369.299 186.656 370.414C186.656 371.867 186.828 372.872 187.172 373.43C187.521 373.982 187.971 374.258 188.523 374.258C189.055 374.258 189.477 373.995 189.789 373.469C190.169 372.833 190.359 371.771 190.359 370.281C190.359 368.771 190.188 367.729 189.844 367.156C189.505 366.583 189.065 366.297 188.523 366.297ZM197.438 364.219C198.276 364.219 198.997 364.424 199.602 364.836C200.211 365.247 200.68 365.878 201.008 366.727C201.341 367.57 201.508 368.747 201.508 370.258C201.508 371.784 201.339 372.971 201 373.82C200.667 374.669 200.216 375.294 199.648 375.695C199.081 376.091 198.365 376.289 197.5 376.289C196.635 376.289 195.909 376.089 195.32 375.688C194.732 375.286 194.271 374.677 193.938 373.859C193.604 373.042 193.438 371.878 193.438 370.367C193.438 368.258 193.763 366.729 194.414 365.781C195.138 364.74 196.146 364.219 197.438 364.219ZM197.492 366.297C197.122 366.297 196.794 366.417 196.508 366.656C196.221 366.891 196.003 367.297 195.852 367.875C195.701 368.453 195.625 369.299 195.625 370.414C195.625 371.867 195.797 372.872 196.141 373.43C196.49 373.982 196.94 374.258 197.492 374.258C198.023 374.258 198.445 373.995 198.758 373.469C199.138 372.833 199.328 371.771 199.328 370.281C199.328 368.771 199.156 367.729 198.812 367.156C198.474 366.583 198.034 366.297 197.492 366.297ZM206.406 364.219C207.245 364.219 207.966 364.424 208.57 364.836C209.18 365.247 209.648 365.878 209.977 366.727C210.31 367.57 210.477 368.747 210.477 370.258C210.477 371.784 210.307 372.971 209.969 373.82C209.635 374.669 209.185 375.294 208.617 375.695C208.049 376.091 207.333 376.289 206.469 376.289C205.604 376.289 204.878 376.089 204.289 375.688C203.701 375.286 203.24 374.677 202.906 373.859C202.573 373.042 202.406 371.878 202.406 370.367C202.406 368.258 202.732 366.729 203.383 365.781C204.107 364.74 205.115 364.219 206.406 364.219ZM206.461 366.297C206.091 366.297 205.763 366.417 205.477 366.656C205.19 366.891 204.971 367.297 204.82 367.875C204.669 368.453 204.594 369.299 204.594 370.414C204.594 371.867 204.766 372.872 205.109 373.43C205.458 373.982 205.909 374.258 206.461 374.258C206.992 374.258 207.414 373.995 207.727 373.469C208.107 372.833 208.297 371.771 208.297 370.281C208.297 368.771 208.125 367.729 207.781 367.156C207.443 366.583 207.003 366.297 206.461 366.297ZM216.727 376V364.508H218.531C219.578 364.508 220.344 364.576 220.828 364.711C221.516 364.893 222.062 365.232 222.469 365.727C222.875 366.221 223.078 366.805 223.078 367.477C223.078 367.914 222.984 368.312 222.797 368.672C222.615 369.026 222.315 369.359 221.898 369.672C222.596 370 223.107 370.411 223.43 370.906C223.753 371.396 223.914 371.977 223.914 372.648C223.914 373.294 223.747 373.883 223.414 374.414C223.081 374.945 222.651 375.344 222.125 375.609C221.599 375.87 220.872 376 219.945 376H216.727ZM218.914 366.594V369.016H219.391C219.922 369.016 220.315 368.904 220.57 368.68C220.831 368.456 220.961 368.151 220.961 367.766C220.961 367.406 220.839 367.122 220.594 366.914C220.349 366.701 219.977 366.594 219.477 366.594H218.914ZM218.914 370.969V373.914H219.461C220.367 373.914 220.977 373.799 221.289 373.57C221.607 373.341 221.766 373.008 221.766 372.57C221.766 372.076 221.581 371.685 221.211 371.398C220.841 371.112 220.227 370.969 219.367 370.969H218.914ZM226.016 364.508H228.109L233.039 372.07V364.508H235.227V376H233.125L228.203 368.461V376H226.016V364.508ZM237.852 376V364.508H239.656C240.703 364.508 241.469 364.576 241.953 364.711C242.641 364.893 243.188 365.232 243.594 365.727C244 366.221 244.203 366.805 244.203 367.477C244.203 367.914 244.109 368.312 243.922 368.672C243.74 369.026 243.44 369.359 243.023 369.672C243.721 370 244.232 370.411 244.555 370.906C244.878 371.396 245.039 371.977 245.039 372.648C245.039 373.294 244.872 373.883 244.539 374.414C244.206 374.945 243.776 375.344 243.25 375.609C242.724 375.87 241.997 376 241.07 376H237.852ZM240.039 366.594V369.016H240.516C241.047 369.016 241.44 368.904 241.695 368.68C241.956 368.456 242.086 368.151 242.086 367.766C242.086 367.406 241.964 367.122 241.719 366.914C241.474 366.701 241.102 366.594 240.602 366.594H240.039ZM240.039 370.969V373.914H240.586C241.492 373.914 242.102 373.799 242.414 373.57C242.732 373.341 242.891 373.008 242.891 372.57C242.891 372.076 242.706 371.685 242.336 371.398C241.966 371.112 241.352 370.969 240.492 370.969H240.039Z" fill="#191B21"/>
<path opacity="0.8" d="M93.7031 394.508H94.8594V399.328H100.703V394.508H101.859V406H100.703V400.453H94.8594V406H93.7031V394.508ZM112.945 397.5V406H111.867V404.539C111.409 405.096 110.893 405.516 110.32 405.797C109.753 406.078 109.13 406.219 108.453 406.219C107.25 406.219 106.221 405.784 105.367 404.914C104.518 404.039 104.094 402.977 104.094 401.727C104.094 400.503 104.523 399.456 105.383 398.586C106.242 397.716 107.276 397.281 108.484 397.281C109.182 397.281 109.812 397.43 110.375 397.727C110.943 398.023 111.44 398.469 111.867 399.062V397.5H112.945ZM108.57 398.336C107.961 398.336 107.398 398.487 106.883 398.789C106.367 399.086 105.956 399.505 105.648 400.047C105.346 400.589 105.195 401.161 105.195 401.766C105.195 402.365 105.349 402.938 105.656 403.484C105.964 404.031 106.375 404.458 106.891 404.766C107.411 405.068 107.969 405.219 108.562 405.219C109.161 405.219 109.729 405.068 110.266 404.766C110.802 404.464 111.214 404.055 111.5 403.539C111.792 403.023 111.938 402.443 111.938 401.797C111.938 400.812 111.612 399.99 110.961 399.328C110.315 398.667 109.518 398.336 108.57 398.336ZM115 397.5H116.117V398.742C116.451 398.253 116.802 397.888 117.172 397.648C117.542 397.404 117.927 397.281 118.328 397.281C118.63 397.281 118.953 397.378 119.297 397.57L118.727 398.492C118.497 398.393 118.305 398.344 118.148 398.344C117.784 398.344 117.432 398.495 117.094 398.797C116.755 399.094 116.497 399.557 116.32 400.188C116.185 400.672 116.117 401.651 116.117 403.125V406H115V397.5ZM128.711 394.219V406H127.633V404.539C127.174 405.096 126.659 405.516 126.086 405.797C125.518 406.078 124.896 406.219 124.219 406.219C123.016 406.219 121.987 405.784 121.133 404.914C120.284 404.039 119.859 402.977 119.859 401.727C119.859 400.503 120.289 399.456 121.148 398.586C122.008 397.716 123.042 397.281 124.25 397.281C124.948 397.281 125.578 397.43 126.141 397.727C126.708 398.023 127.206 398.469 127.633 399.062V394.219H128.711ZM124.336 398.336C123.727 398.336 123.164 398.487 122.648 398.789C122.133 399.086 121.721 399.505 121.414 400.047C121.112 400.589 120.961 401.161 120.961 401.766C120.961 402.365 121.115 402.938 121.422 403.484C121.729 404.031 122.141 404.458 122.656 404.766C123.177 405.068 123.734 405.219 124.328 405.219C124.927 405.219 125.495 405.068 126.031 404.766C126.568 404.464 126.979 404.055 127.266 403.539C127.557 403.023 127.703 402.443 127.703 401.797C127.703 400.812 127.378 399.99 126.727 399.328C126.081 398.667 125.284 398.336 124.336 398.336ZM143.883 399.266L143.016 399.805C142.266 398.81 141.242 398.312 139.945 398.312C138.909 398.312 138.047 398.646 137.359 399.312C136.677 399.979 136.336 400.789 136.336 401.742C136.336 402.362 136.492 402.945 136.805 403.492C137.122 404.039 137.555 404.464 138.102 404.766C138.654 405.068 139.271 405.219 139.953 405.219C141.203 405.219 142.224 404.721 143.016 403.727L143.883 404.297C143.477 404.906 142.93 405.38 142.242 405.719C141.56 406.052 140.781 406.219 139.906 406.219C138.562 406.219 137.448 405.792 136.562 404.938C135.677 404.083 135.234 403.044 135.234 401.82C135.234 400.997 135.44 400.234 135.852 399.531C136.268 398.823 136.839 398.271 137.562 397.875C138.286 397.479 139.096 397.281 139.992 397.281C140.555 397.281 141.096 397.367 141.617 397.539C142.143 397.711 142.589 397.935 142.953 398.211C143.318 398.487 143.628 398.839 143.883 399.266ZM154.461 397.5V406H153.383V404.539C152.924 405.096 152.409 405.516 151.836 405.797C151.268 406.078 150.646 406.219 149.969 406.219C148.766 406.219 147.737 405.784 146.883 404.914C146.034 404.039 145.609 402.977 145.609 401.727C145.609 400.503 146.039 399.456 146.898 398.586C147.758 397.716 148.792 397.281 150 397.281C150.698 397.281 151.328 397.43 151.891 397.727C152.458 398.023 152.956 398.469 153.383 399.062V397.5H154.461ZM150.086 398.336C149.477 398.336 148.914 398.487 148.398 398.789C147.883 399.086 147.471 399.505 147.164 400.047C146.862 400.589 146.711 401.161 146.711 401.766C146.711 402.365 146.865 402.938 147.172 403.484C147.479 404.031 147.891 404.458 148.406 404.766C148.927 405.068 149.484 405.219 150.078 405.219C150.677 405.219 151.245 405.068 151.781 404.766C152.318 404.464 152.729 404.055 153.016 403.539C153.307 403.023 153.453 402.443 153.453 401.797C153.453 400.812 153.128 399.99 152.477 399.328C151.831 398.667 151.034 398.336 150.086 398.336ZM156.945 397.5H158.031V399.062C158.464 398.469 158.961 398.023 159.523 397.727C160.086 397.43 160.714 397.281 161.406 397.281C162.615 397.281 163.648 397.716 164.508 398.586C165.367 399.456 165.797 400.503 165.797 401.727C165.797 402.977 165.37 404.039 164.516 404.914C163.667 405.784 162.641 406.219 161.438 406.219C160.76 406.219 160.138 406.078 159.57 405.797C159.003 405.516 158.49 405.096 158.031 404.539V409.109H156.945V397.5ZM161.32 398.336C160.372 398.336 159.573 398.667 158.922 399.328C158.276 399.99 157.953 400.812 157.953 401.797C157.953 402.443 158.096 403.023 158.383 403.539C158.674 404.055 159.089 404.464 159.625 404.766C160.167 405.068 160.737 405.219 161.336 405.219C161.924 405.219 162.477 405.068 162.992 404.766C163.513 404.458 163.927 404.031 164.234 403.484C164.542 402.938 164.695 402.365 164.695 401.766C164.695 401.161 164.542 400.589 164.234 400.047C163.932 399.505 163.523 399.086 163.008 398.789C162.492 398.487 161.93 398.336 161.32 398.336ZM169.055 397.281C169.32 397.281 169.547 397.375 169.734 397.562C169.922 397.75 170.016 397.979 170.016 398.25C170.016 398.521 169.922 398.75 169.734 398.938C169.547 399.125 169.32 399.219 169.055 399.219C168.789 399.219 168.562 399.125 168.375 398.938C168.188 398.75 168.094 398.521 168.094 398.25C168.094 397.984 168.188 397.758 168.375 397.57C168.562 397.378 168.789 397.281 169.055 397.281ZM169.055 404.281C169.32 404.281 169.547 404.375 169.734 404.562C169.922 404.75 170.016 404.979 170.016 405.25C170.016 405.516 169.922 405.745 169.734 405.938C169.547 406.125 169.32 406.219 169.055 406.219C168.789 406.219 168.562 406.125 168.375 405.938C168.188 405.745 168.094 405.516 168.094 405.25C168.094 404.979 168.188 404.75 168.375 404.562C168.562 404.375 168.789 404.281 169.055 404.281ZM177.578 394.508H180.852V406H178.68V396.562H176.312L177.578 394.508ZM188.359 394.219C189.198 394.219 189.919 394.424 190.523 394.836C191.133 395.247 191.602 395.878 191.93 396.727C192.263 397.57 192.43 398.747 192.43 400.258C192.43 401.784 192.26 402.971 191.922 403.82C191.589 404.669 191.138 405.294 190.57 405.695C190.003 406.091 189.286 406.289 188.422 406.289C187.557 406.289 186.831 406.089 186.242 405.688C185.654 405.286 185.193 404.677 184.859 403.859C184.526 403.042 184.359 401.878 184.359 400.367C184.359 398.258 184.685 396.729 185.336 395.781C186.06 394.74 187.068 394.219 188.359 394.219ZM188.414 396.297C188.044 396.297 187.716 396.417 187.43 396.656C187.143 396.891 186.924 397.297 186.773 397.875C186.622 398.453 186.547 399.299 186.547 400.414C186.547 401.867 186.719 402.872 187.062 403.43C187.411 403.982 187.862 404.258 188.414 404.258C188.945 404.258 189.367 403.995 189.68 403.469C190.06 402.833 190.25 401.771 190.25 400.281C190.25 398.771 190.078 397.729 189.734 397.156C189.396 396.583 188.956 396.297 188.414 396.297ZM197.328 394.219C198.167 394.219 198.888 394.424 199.492 394.836C200.102 395.247 200.57 395.878 200.898 396.727C201.232 397.57 201.398 398.747 201.398 400.258C201.398 401.784 201.229 402.971 200.891 403.82C200.557 404.669 200.107 405.294 199.539 405.695C198.971 406.091 198.255 406.289 197.391 406.289C196.526 406.289 195.799 406.089 195.211 405.688C194.622 405.286 194.161 404.677 193.828 403.859C193.495 403.042 193.328 401.878 193.328 400.367C193.328 398.258 193.654 396.729 194.305 395.781C195.029 394.74 196.036 394.219 197.328 394.219ZM197.383 396.297C197.013 396.297 196.685 396.417 196.398 396.656C196.112 396.891 195.893 397.297 195.742 397.875C195.591 398.453 195.516 399.299 195.516 400.414C195.516 401.867 195.688 402.872 196.031 403.43C196.38 403.982 196.831 404.258 197.383 404.258C197.914 404.258 198.336 403.995 198.648 403.469C199.029 402.833 199.219 401.771 199.219 400.281C199.219 398.771 199.047 397.729 198.703 397.156C198.365 396.583 197.924 396.297 197.383 396.297ZM206.297 394.219C207.135 394.219 207.857 394.424 208.461 394.836C209.07 395.247 209.539 395.878 209.867 396.727C210.201 397.57 210.367 398.747 210.367 400.258C210.367 401.784 210.198 402.971 209.859 403.82C209.526 404.669 209.076 405.294 208.508 405.695C207.94 406.091 207.224 406.289 206.359 406.289C205.495 406.289 204.768 406.089 204.18 405.688C203.591 405.286 203.13 404.677 202.797 403.859C202.464 403.042 202.297 401.878 202.297 400.367C202.297 398.258 202.622 396.729 203.273 395.781C203.997 394.74 205.005 394.219 206.297 394.219ZM206.352 396.297C205.982 396.297 205.654 396.417 205.367 396.656C205.081 396.891 204.862 397.297 204.711 397.875C204.56 398.453 204.484 399.299 204.484 400.414C204.484 401.867 204.656 402.872 205 403.43C205.349 403.982 205.799 404.258 206.352 404.258C206.883 404.258 207.305 403.995 207.617 403.469C207.997 402.833 208.188 401.771 208.188 400.281C208.188 398.771 208.016 397.729 207.672 397.156C207.333 396.583 206.893 396.297 206.352 396.297ZM215.266 394.219C216.104 394.219 216.826 394.424 217.43 394.836C218.039 395.247 218.508 395.878 218.836 396.727C219.169 397.57 219.336 398.747 219.336 400.258C219.336 401.784 219.167 402.971 218.828 403.82C218.495 404.669 218.044 405.294 217.477 405.695C216.909 406.091 216.193 406.289 215.328 406.289C214.464 406.289 213.737 406.089 213.148 405.688C212.56 405.286 212.099 404.677 211.766 403.859C211.432 403.042 211.266 401.878 211.266 400.367C211.266 398.258 211.591 396.729 212.242 395.781C212.966 394.74 213.974 394.219 215.266 394.219ZM215.32 396.297C214.951 396.297 214.622 396.417 214.336 396.656C214.049 396.891 213.831 397.297 213.68 397.875C213.529 398.453 213.453 399.299 213.453 400.414C213.453 401.867 213.625 402.872 213.969 403.43C214.318 403.982 214.768 404.258 215.32 404.258C215.852 404.258 216.273 403.995 216.586 403.469C216.966 402.833 217.156 401.771 217.156 400.281C217.156 398.771 216.984 397.729 216.641 397.156C216.302 396.583 215.862 396.297 215.32 396.297ZM225.586 406V394.508H227.391C228.438 394.508 229.203 394.576 229.688 394.711C230.375 394.893 230.922 395.232 231.328 395.727C231.734 396.221 231.938 396.805 231.938 397.477C231.938 397.914 231.844 398.312 231.656 398.672C231.474 399.026 231.174 399.359 230.758 399.672C231.456 400 231.966 400.411 232.289 400.906C232.612 401.396 232.773 401.977 232.773 402.648C232.773 403.294 232.607 403.883 232.273 404.414C231.94 404.945 231.51 405.344 230.984 405.609C230.458 405.87 229.732 406 228.805 406H225.586ZM227.773 396.594V399.016H228.25C228.781 399.016 229.174 398.904 229.43 398.68C229.69 398.456 229.82 398.151 229.82 397.766C229.82 397.406 229.698 397.122 229.453 396.914C229.208 396.701 228.836 396.594 228.336 396.594H227.773ZM227.773 400.969V403.914H228.32C229.227 403.914 229.836 403.799 230.148 403.57C230.466 403.341 230.625 403.008 230.625 402.57C230.625 402.076 230.44 401.685 230.07 401.398C229.701 401.112 229.086 400.969 228.227 400.969H227.773ZM234.875 394.508H236.969L241.898 402.07V394.508H244.086V406H241.984L237.062 398.461V406H234.875V394.508ZM246.711 406V394.508H248.516C249.562 394.508 250.328 394.576 250.812 394.711C251.5 394.893 252.047 395.232 252.453 395.727C252.859 396.221 253.062 396.805 253.062 397.477C253.062 397.914 252.969 398.312 252.781 398.672C252.599 399.026 252.299 399.359 251.883 399.672C252.581 400 253.091 400.411 253.414 400.906C253.737 401.396 253.898 401.977 253.898 402.648C253.898 403.294 253.732 403.883 253.398 404.414C253.065 404.945 252.635 405.344 252.109 405.609C251.583 405.87 250.857 406 249.93 406H246.711ZM248.898 396.594V399.016H249.375C249.906 399.016 250.299 398.904 250.555 398.68C250.815 398.456 250.945 398.151 250.945 397.766C250.945 397.406 250.823 397.122 250.578 396.914C250.333 396.701 249.961 396.594 249.461 396.594H248.898ZM248.898 400.969V403.914H249.445C250.352 403.914 250.961 403.799 251.273 403.57C251.591 403.341 251.75 403.008 251.75 402.57C251.75 402.076 251.565 401.685 251.195 401.398C250.826 401.112 250.211 400.969 249.352 400.969H248.898Z" fill="#191B21"/>
<path opacity="0.8" d="M74.4258 324.635H78.5176V339H75.8027V327.203H72.8438L74.4258 324.635ZM89.5918 339V324.635H91.8477C93.1562 324.635 94.1133 324.719 94.7188 324.889C95.5781 325.117 96.2617 325.54 96.7695 326.158C97.2773 326.777 97.5312 327.506 97.5312 328.346C97.5312 328.893 97.4141 329.391 97.1797 329.84C96.9518 330.283 96.5775 330.699 96.0566 331.09C96.929 331.5 97.5671 332.014 97.9707 332.633C98.3743 333.245 98.5762 333.971 98.5762 334.811C98.5762 335.618 98.3678 336.354 97.9512 337.018C97.5345 337.682 96.9974 338.18 96.3398 338.512C95.6823 338.837 94.7741 339 93.6152 339H89.5918ZM92.3262 327.242V330.27H92.9219C93.5859 330.27 94.0775 330.13 94.3965 329.85C94.722 329.57 94.8848 329.189 94.8848 328.707C94.8848 328.258 94.7318 327.903 94.4258 327.643C94.1198 327.376 93.6543 327.242 93.0293 327.242H92.3262ZM92.3262 332.711V336.393H93.0098C94.1426 336.393 94.9043 336.249 95.2949 335.963C95.6921 335.676 95.8906 335.26 95.8906 334.713C95.8906 334.094 95.6595 333.606 95.1973 333.248C94.735 332.89 93.9668 332.711 92.8926 332.711H92.3262ZM101.203 324.635H103.82L109.982 334.088V324.635H112.717V339H110.09L103.938 329.576V339H101.203V324.635ZM115.998 339V324.635H118.254C119.562 324.635 120.52 324.719 121.125 324.889C121.984 325.117 122.668 325.54 123.176 326.158C123.684 326.777 123.938 327.506 123.938 328.346C123.938 328.893 123.82 329.391 123.586 329.84C123.358 330.283 122.984 330.699 122.463 331.09C123.335 331.5 123.973 332.014 124.377 332.633C124.781 333.245 124.982 333.971 124.982 334.811C124.982 335.618 124.774 336.354 124.357 337.018C123.941 337.682 123.404 338.18 122.746 338.512C122.089 338.837 121.18 339 120.021 339H115.998ZM118.732 327.242V330.27H119.328C119.992 330.27 120.484 330.13 120.803 329.85C121.128 329.57 121.291 329.189 121.291 328.707C121.291 328.258 121.138 327.903 120.832 327.643C120.526 327.376 120.061 327.242 119.436 327.242H118.732ZM118.732 332.711V336.393H119.416C120.549 336.393 121.311 336.249 121.701 335.963C122.098 335.676 122.297 335.26 122.297 334.713C122.297 334.094 122.066 333.606 121.604 333.248C121.141 332.89 120.373 332.711 119.299 332.711H118.732ZM132.688 328.512H142.443V330.953H132.688V328.512ZM132.688 332.691H142.443V335.133H132.688V332.691ZM152.473 324.635H156.564V339H153.85V327.203H150.891L152.473 324.635ZM165.949 324.273C166.997 324.273 167.899 324.531 168.654 325.045C169.416 325.559 170.002 326.347 170.412 327.408C170.829 328.463 171.037 329.934 171.037 331.822C171.037 333.73 170.826 335.214 170.402 336.275C169.986 337.337 169.423 338.118 168.713 338.619C168.003 339.114 167.108 339.361 166.027 339.361C164.947 339.361 164.038 339.111 163.303 338.609C162.567 338.108 161.991 337.346 161.574 336.324C161.158 335.302 160.949 333.847 160.949 331.959C160.949 329.322 161.356 327.411 162.17 326.227C163.075 324.924 164.335 324.273 165.949 324.273ZM166.018 326.871C165.555 326.871 165.145 327.021 164.787 327.32C164.429 327.613 164.156 328.121 163.967 328.844C163.778 329.566 163.684 330.624 163.684 332.018C163.684 333.834 163.898 335.09 164.328 335.787C164.764 336.477 165.327 336.822 166.018 336.822C166.682 336.822 167.209 336.493 167.6 335.836C168.075 335.042 168.312 333.714 168.312 331.852C168.312 329.964 168.098 328.661 167.668 327.945C167.245 327.229 166.695 326.871 166.018 326.871ZM177.16 324.273C178.208 324.273 179.11 324.531 179.865 325.045C180.627 325.559 181.213 326.347 181.623 327.408C182.04 328.463 182.248 329.934 182.248 331.822C182.248 333.73 182.036 335.214 181.613 336.275C181.197 337.337 180.633 338.118 179.924 338.619C179.214 339.114 178.319 339.361 177.238 339.361C176.158 339.361 175.249 339.111 174.514 338.609C173.778 338.108 173.202 337.346 172.785 336.324C172.368 335.302 172.16 333.847 172.16 331.959C172.16 329.322 172.567 327.411 173.381 326.227C174.286 324.924 175.546 324.273 177.16 324.273ZM177.229 326.871C176.766 326.871 176.356 327.021 175.998 327.32C175.64 327.613 175.367 328.121 175.178 328.844C174.989 329.566 174.895 330.624 174.895 332.018C174.895 333.834 175.109 335.09 175.539 335.787C175.975 336.477 176.538 336.822 177.229 336.822C177.893 336.822 178.42 336.493 178.811 335.836C179.286 335.042 179.523 333.714 179.523 331.852C179.523 329.964 179.309 328.661 178.879 327.945C178.456 327.229 177.906 326.871 177.229 326.871ZM188.371 324.273C189.419 324.273 190.321 324.531 191.076 325.045C191.838 325.559 192.424 326.347 192.834 327.408C193.251 328.463 193.459 329.934 193.459 331.822C193.459 333.73 193.247 335.214 192.824 336.275C192.408 337.337 191.844 338.118 191.135 338.619C190.425 339.114 189.53 339.361 188.449 339.361C187.368 339.361 186.46 339.111 185.725 338.609C184.989 338.108 184.413 337.346 183.996 336.324C183.579 335.302 183.371 333.847 183.371 331.959C183.371 329.322 183.778 327.411 184.592 326.227C185.497 324.924 186.757 324.273 188.371 324.273ZM188.439 326.871C187.977 326.871 187.567 327.021 187.209 327.32C186.851 327.613 186.577 328.121 186.389 328.844C186.2 329.566 186.105 330.624 186.105 332.018C186.105 333.834 186.32 335.09 186.75 335.787C187.186 336.477 187.749 336.822 188.439 336.822C189.104 336.822 189.631 336.493 190.021 335.836C190.497 335.042 190.734 333.714 190.734 331.852C190.734 329.964 190.52 328.661 190.09 327.945C189.667 327.229 189.117 326.871 188.439 326.871ZM199.582 324.273C200.63 324.273 201.532 324.531 202.287 325.045C203.049 325.559 203.635 326.347 204.045 327.408C204.462 328.463 204.67 329.934 204.67 331.822C204.67 333.73 204.458 335.214 204.035 336.275C203.618 337.337 203.055 338.118 202.346 338.619C201.636 339.114 200.741 339.361 199.66 339.361C198.579 339.361 197.671 339.111 196.936 338.609C196.2 338.108 195.624 337.346 195.207 336.324C194.79 335.302 194.582 333.847 194.582 331.959C194.582 329.322 194.989 327.411 195.803 326.227C196.708 324.924 197.967 324.273 199.582 324.273ZM199.65 326.871C199.188 326.871 198.778 327.021 198.42 327.32C198.062 327.613 197.788 328.121 197.6 328.844C197.411 329.566 197.316 330.624 197.316 332.018C197.316 333.834 197.531 335.09 197.961 335.787C198.397 336.477 198.96 336.822 199.65 336.822C200.314 336.822 200.842 336.493 201.232 335.836C201.708 335.042 201.945 333.714 201.945 331.852C201.945 329.964 201.73 328.661 201.301 327.945C200.878 327.229 200.327 326.871 199.65 326.871ZM210.793 324.273C211.841 324.273 212.743 324.531 213.498 325.045C214.26 325.559 214.846 326.347 215.256 327.408C215.673 328.463 215.881 329.934 215.881 331.822C215.881 333.73 215.669 335.214 215.246 336.275C214.829 337.337 214.266 338.118 213.557 338.619C212.847 339.114 211.952 339.361 210.871 339.361C209.79 339.361 208.882 339.111 208.146 338.609C207.411 338.108 206.835 337.346 206.418 336.324C206.001 335.302 205.793 333.847 205.793 331.959C205.793 329.322 206.2 327.411 207.014 326.227C207.919 324.924 209.178 324.273 210.793 324.273ZM210.861 326.871C210.399 326.871 209.989 327.021 209.631 327.32C209.273 327.613 208.999 328.121 208.811 328.844C208.622 329.566 208.527 330.624 208.527 332.018C208.527 333.834 208.742 335.09 209.172 335.787C209.608 336.477 210.171 336.822 210.861 336.822C211.525 336.822 212.053 336.493 212.443 335.836C212.919 335.042 213.156 333.714 213.156 331.852C213.156 329.964 212.941 328.661 212.512 327.945C212.089 327.229 211.538 326.871 210.861 326.871ZM222.6 324.635H225.295L227.365 333.805L229.934 324.635H232.209L234.807 333.805L236.857 324.635H239.553L236.32 339H233.693L231.047 329.713L228.449 339H225.852L222.6 324.635ZM241.711 324.635H244.328L250.49 334.088V324.635H253.225V339H250.598L244.445 329.576V339H241.711V324.635ZM255.09 324.635H263.029V327.33H260.412V339H257.639V327.33H255.09V324.635ZM265.09 324.635H267.99C269.579 324.635 270.708 324.778 271.379 325.064C272.056 325.344 272.6 325.813 273.01 326.471C273.42 327.128 273.625 327.906 273.625 328.805C273.625 329.749 273.397 330.54 272.941 331.178C272.492 331.809 271.812 332.288 270.9 332.613L274.299 339H271.311L268.078 332.916H267.824V339H265.09V324.635ZM267.824 330.25H268.684C269.556 330.25 270.155 330.136 270.48 329.908C270.812 329.68 270.979 329.303 270.979 328.775C270.979 328.463 270.897 328.193 270.734 327.965C270.572 327.73 270.354 327.564 270.08 327.467C269.807 327.363 269.305 327.311 268.576 327.311H267.824V330.25Z" fill="#191B21"/>
<g filter="url(#filter0_d_20_217)">
<path d="M214 134.001C214 156.645 195.644 175.001 173 175.001C132 175.001 132 175.001 132 134.001C132 111.357 150.356 93.001 173 93.001C195.644 93.001 214 111.357 214 134.001Z" fill="#2278D4"/>
</g>
<path d="M164.149 126.856C165.512 126.856 166.684 127.191 167.666 127.859C168.656 128.528 169.418 129.552 169.951 130.932C170.493 132.303 170.764 134.215 170.764 136.67C170.764 139.15 170.489 141.079 169.938 142.459C169.397 143.839 168.665 144.854 167.742 145.506C166.82 146.149 165.656 146.471 164.251 146.471C162.846 146.471 161.665 146.145 160.709 145.493C159.753 144.841 159.004 143.851 158.462 142.522C157.92 141.194 157.649 139.302 157.649 136.848C157.649 133.42 158.178 130.936 159.236 129.396C160.413 127.703 162.05 126.856 164.149 126.856ZM164.238 130.233C163.637 130.233 163.104 130.428 162.639 130.817C162.173 131.198 161.818 131.858 161.572 132.798C161.327 133.737 161.204 135.113 161.204 136.924C161.204 139.285 161.483 140.919 162.042 141.824C162.609 142.721 163.341 143.17 164.238 143.17C165.102 143.17 165.787 142.743 166.295 141.888C166.913 140.855 167.222 139.129 167.222 136.708C167.222 134.254 166.942 132.561 166.384 131.63C165.834 130.699 165.118 130.233 164.238 130.233ZM176.032 133.344H172.566C172.66 131.329 173.29 129.747 174.458 128.596C175.634 127.436 177.141 126.856 178.978 126.856C180.112 126.856 181.11 127.098 181.974 127.58C182.845 128.054 183.539 128.744 184.056 129.649C184.58 130.547 184.843 131.461 184.843 132.392C184.843 133.5 184.525 134.694 183.891 135.972C183.264 137.25 182.113 138.76 180.438 140.504L178.343 142.713H184.995V146.001H172.059V144.3L177.835 138.409C179.231 136.996 180.158 135.862 180.615 135.007C181.081 134.144 181.313 133.365 181.313 132.671C181.313 131.951 181.072 131.359 180.59 130.894C180.116 130.42 179.502 130.183 178.749 130.183C177.987 130.183 177.353 130.466 176.845 131.033C176.337 131.6 176.066 132.37 176.032 133.344Z" fill="#0F1320"/>
<defs>
<filter id="filter0_d_20_217" x="107" y="83.001" width="132" height="132" filterUnits="userSpaceOnUse" color-interpolation-filters="sRGB">
<feFlood flood-opacity="0" result="BackgroundImageFix"/>
<feColorMatrix in="SourceAlpha" type="matrix" values="0 0 0 0 0 0 0 0 0 0 0 0 0 0 0 0 0 0 127 0" result="hardAlpha"/>
<feOffset dy="15"/>
<feGaussianBlur stdDeviation="12.5"/>
<feColorMatrix type="matrix" values="0 0 0 0 0.133333 0 0 0 0 0.470588 0 0 0 0 0.831373 0 0 0 0.25 0"/>
<feBlend mode="normal" in2="BackgroundImageFix" result="effect1_dropShadow_20_217"/>
<feBlend mode="normal" in="SourceGraphic" in2="effect1_dropShadow_20_217" result="shape"/>
</filter>
</defs>
</svg>
