<svg width="49" height="48" viewBox="0 0 49 48" fill="none" xmlns="http://www.w3.org/2000/svg">
<circle opacity="0.05" cx="24.7998" cy="24" r="23.04" stroke="white" stroke-width="1.92"/>
<g clip-path="url(#clip0_203_27)">
<path d="M32.8682 18.1858L34.4002 16.7202V16.3994H29.093L25.3106 25.8138L21.0074 16.3994H15.4426V16.7202L17.2322 18.8746C17.4066 19.0338 17.4978 19.2666 17.4746 19.501V27.9674C17.5298 28.2722 17.4306 28.5858 17.2162 28.8074L15.2002 31.2506V31.5674H20.9162V31.2466L18.9002 28.8074C18.6818 28.585 18.5786 28.277 18.6226 27.9674V20.6442L23.6402 31.5714H24.2234L28.5378 20.6442V29.349C28.5378 29.5786 28.5378 29.6258 28.3874 29.7762L26.8354 31.2778V31.5994H34.365V31.2786L32.869 29.8138C32.7378 29.7146 32.6698 29.5482 32.6978 29.3866V18.613C32.6698 18.4506 32.737 18.2842 32.8682 18.1858V18.1858Z" fill="white"/>
</g>
<defs>
<clipPath id="clip0_203_27">
<rect width="19.2" height="19.2" fill="white" transform="translate(15.2002 14.3999)"/>
</clipPath>
</defs>
</svg>
