<svg width="49" height="48" viewBox="0 0 49 48" fill="none" xmlns="http://www.w3.org/2000/svg">
<circle opacity="0.05" cx="24.2002" cy="24" r="23.04" stroke="white" stroke-width="1.92"/>
<g clip-path="url(#clip0_203_26)">
<path d="M28.2007 16H20.2007C17.9915 16 16.2007 17.7909 16.2007 20V28C16.2007 30.2091 17.9915 32 20.2007 32H28.2007C30.4098 32 32.2007 30.2091 32.2007 28V20C32.2007 17.7909 30.4098 16 28.2007 16Z" stroke="white" stroke-width="1.92" stroke-linecap="round" stroke-linejoin="round"/>
<path d="M27.401 23.4958C27.4998 24.1615 27.386 24.8415 27.076 25.439C26.766 26.0364 26.2756 26.5209 25.6743 26.8235C25.0731 27.1261 24.3918 27.2314 23.7273 27.1245C23.0627 27.0176 22.4488 26.7038 21.9729 26.2279C21.497 25.7519 21.1832 25.1381 21.0763 24.4735C20.9694 23.809 21.0747 23.1277 21.3773 22.5265C21.6799 21.9252 22.1644 21.4347 22.7618 21.1247C23.3593 20.8147 24.0392 20.701 24.705 20.7998C25.3842 20.9005 26.0129 21.2169 26.4984 21.7024C26.9839 22.1879 27.3003 22.8166 27.401 23.4958Z" stroke="white" stroke-width="1.92" stroke-linecap="round" stroke-linejoin="round"/>
<path d="M28.6001 19.5996H28.6084" stroke="white" stroke-width="1.92" stroke-linecap="round" stroke-linejoin="round"/>
</g>
<defs>
<clipPath id="clip0_203_26">
<rect width="19.2" height="19.2" fill="white" transform="translate(14.6001 14.3999)"/>
</clipPath>
</defs>
</svg>
