<svg width="49" height="48" viewBox="0 0 49 48" fill="none" xmlns="http://www.w3.org/2000/svg">
<circle opacity="0.05" cx="24.3999" cy="24" r="23.04" stroke="white" stroke-width="1.92"/>
<g clip-path="url(#clip0_203_28)">
<path d="M24.3998 14.7998C19.0958 14.7998 14.7998 19.0238 14.7998 24.2334C14.7998 28.4022 17.5502 31.9374 21.3638 33.1838C21.8438 33.2726 22.0198 32.9806 22.0198 32.7302C22.0198 32.5062 22.0118 31.9126 22.0078 31.1262C19.3374 31.695 18.7742 29.8606 18.7742 29.8606C18.3374 28.7718 17.7062 28.4806 17.7062 28.4806C16.8366 27.8958 17.7734 27.9078 17.7734 27.9078C18.7374 27.9734 19.2438 28.8798 19.2438 28.8798C20.0998 30.3222 21.491 29.9054 22.0398 29.6646C22.1262 29.0542 22.3734 28.639 22.6478 28.403C20.5158 28.167 18.275 27.3558 18.275 23.7414C18.275 22.7118 18.647 21.8702 19.263 21.2102C19.155 20.9718 18.831 20.0126 19.347 18.7134C19.347 18.7134 20.151 18.4606 21.987 19.6806C22.755 19.471 23.571 19.367 24.387 19.3622C25.203 19.367 26.019 19.471 26.787 19.6806C28.611 18.4606 29.415 18.7134 29.415 18.7134C29.931 20.0126 29.607 20.9718 29.511 21.2102C30.123 21.8702 30.495 22.7118 30.495 23.7414C30.495 27.3654 28.251 28.163 26.115 28.395C26.451 28.6782 26.763 29.2566 26.763 30.1406C26.763 31.403 26.751 32.4174 26.751 32.7238C26.751 32.971 26.919 33.2662 27.411 33.1718C31.2518 31.9334 33.9998 28.3958 33.9998 24.2334C33.9998 19.0238 29.7014 14.7998 24.3998 14.7998Z" fill="white"/>
</g>
<defs>
<clipPath id="clip0_203_28">
<rect width="19.2" height="19.2" fill="white" transform="translate(14.7998 14.3999)"/>
</clipPath>
</defs>
</svg>
