<svg width="48" height="48" viewBox="0 0 48 48" fill="none" xmlns="http://www.w3.org/2000/svg">
<circle opacity="0.05" cx="24" cy="24" r="23.04" stroke="white" stroke-width="1.92"/>
<path d="M32.7997 16.7991C32.0336 17.3394 31.1854 17.7527 30.2877 18.0231C29.8059 17.4691 29.1656 17.0764 28.4533 16.8982C27.7411 16.72 26.9913 16.7648 26.3054 17.0266C25.6194 17.2884 25.0305 17.7546 24.6181 18.362C24.2057 18.9695 23.9899 19.6889 23.9997 20.4231V21.2231C22.5938 21.2595 21.2007 20.9477 19.9445 20.3154C18.6883 19.6831 17.608 18.75 16.7997 17.5991C16.7997 17.5991 13.5997 24.7991 20.7997 27.9991C19.1521 29.1174 17.1894 29.6782 15.1997 29.5991C22.3997 33.5991 31.1997 29.5991 31.1997 20.3991C31.199 20.1762 31.1775 19.9539 31.1357 19.7351C31.9522 18.9299 32.5284 17.9132 32.7997 16.7991Z" fill="white"/>
</svg>
