<svg width="48" height="48" viewBox="0 0 48 48" fill="none" xmlns="http://www.w3.org/2000/svg">
<circle opacity="0.05" cx="24" cy="24" r="23.04" stroke="white" stroke-width="1.92"/>
<g clip-path="url(#clip0_203_29)">
<path d="M31.4594 21.8462C30.853 21.8462 30.3194 22.1014 29.9266 22.499C28.4826 21.4846 26.5354 20.8318 24.3778 20.7622L25.4986 15.6374L29.0674 16.4502C29.0674 17.3366 29.7794 18.0606 30.653 18.0606C31.5434 18.0606 32.2594 17.3174 32.2594 16.4302C32.2594 15.543 31.5482 14.7998 30.6538 14.7998C30.0306 14.7998 29.493 15.1814 29.225 15.703L25.2834 14.8166C25.085 14.763 24.8906 14.907 24.8378 15.1086L23.6074 20.7582C21.4666 20.8486 19.5402 21.5006 18.0914 22.5158C17.6986 22.1014 17.1442 21.8462 16.5378 21.8462C14.2882 21.8462 13.5514 24.9094 15.6114 25.9566C15.5386 26.2806 15.5058 26.6262 15.5058 26.971C15.5058 30.4118 19.3258 33.1998 24.0162 33.1998C28.7266 33.1998 32.5466 30.4118 32.5466 26.971C32.5466 26.6262 32.5106 26.2646 32.4218 25.9398C34.4402 24.8886 33.697 21.8478 31.4594 21.8462ZM18.8802 26.1742C18.8802 25.271 19.5922 24.5438 20.4866 24.5438C21.3602 24.5438 22.073 25.2662 22.073 26.1742C22.073 27.0614 21.361 27.7846 20.4866 27.7846C19.5962 27.7886 18.8802 27.0614 18.8802 26.1742ZM27.5514 30.0126C26.0786 31.507 21.9226 31.507 20.449 30.0126C20.2866 29.8686 20.2866 29.6142 20.449 29.4502C20.5906 29.3062 20.8418 29.3062 20.9834 29.4502C22.1082 30.6206 25.8394 30.6406 27.013 29.4502C27.1546 29.3062 27.4058 29.3062 27.5474 29.4502C27.713 29.615 27.713 29.8694 27.5514 30.0126ZM27.5186 27.7878C26.645 27.7878 25.933 27.0654 25.933 26.179C25.933 25.2758 26.645 24.5486 27.5186 24.5486C28.409 24.5486 29.125 25.271 29.125 26.179C29.121 27.0614 28.409 27.7878 27.5186 27.7878Z" fill="white"/>
</g>
<defs>
<clipPath id="clip0_203_29">
<rect width="19.2" height="19.2" fill="white" transform="translate(14.3999 14.3999)"/>
</clipPath>
</defs>
</svg>
