<svg width="480" height="80" viewBox="0 0 480 80" fill="none" xmlns="http://www.w3.org/2000/svg">
<rect width="480" height="80" rx="20" fill="white"/>
<rect x="1.25" y="1.25" width="477.5" height="77.5" rx="18.75" stroke="black" stroke-opacity="0.1" stroke-width="2.5"/>
<line x1="40" y1="40.5" x2="171" y2="40.5" stroke="black" stroke-width="3"/>
<line x1="171" y1="40.5" x2="302" y2="40.5" stroke="black" stroke-opacity="0.5" stroke-width="3"/>
<path d="M372.25 47H370.612L364.024 37.01V47H362.386V34.436H364.024L370.612 44.408V34.436H372.25V47ZM384.042 41.69C384.042 42.002 384.024 42.332 383.988 42.68H376.104C376.164 43.652 376.494 44.414 377.094 44.966C377.706 45.506 378.444 45.776 379.308 45.776C380.016 45.776 380.604 45.614 381.072 45.29C381.552 44.954 381.888 44.51 382.08 43.958H383.844C383.58 44.906 383.052 45.68 382.26 46.28C381.468 46.868 380.484 47.162 379.308 47.162C378.372 47.162 377.532 46.952 376.788 46.532C376.056 46.112 375.48 45.518 375.06 44.75C374.64 43.97 374.43 43.07 374.43 42.05C374.43 41.03 374.634 40.136 375.042 39.368C375.45 38.6 376.02 38.012 376.752 37.604C377.496 37.184 378.348 36.974 379.308 36.974C380.244 36.974 381.072 37.178 381.792 37.586C382.512 37.994 383.064 38.558 383.448 39.278C383.844 39.986 384.042 40.79 384.042 41.69ZM382.35 41.348C382.35 40.724 382.212 40.19 381.936 39.746C381.66 39.29 381.282 38.948 380.802 38.72C380.334 38.48 379.812 38.36 379.236 38.36C378.408 38.36 377.7 38.624 377.112 39.152C376.536 39.68 376.206 40.412 376.122 41.348H382.35ZM391.352 47L389.012 43.328L386.762 47H385.052L388.238 42.104L385.052 37.136H386.906L389.246 40.79L391.478 37.136H393.188L390.02 42.014L393.206 47H391.352ZM396.816 38.486V44.3C396.816 44.78 396.918 45.122 397.122 45.326C397.326 45.518 397.68 45.614 398.184 45.614H399.39V47H397.914C397.002 47 396.318 46.79 395.862 46.37C395.406 45.95 395.178 45.26 395.178 44.3V38.486H393.9V37.136H395.178V34.652H396.816V37.136H399.39V38.486H396.816Z" fill="black"/>
<path d="M405 38L409 41.5L405 45" stroke="black"/>
</svg>
