<svg width="145" height="57" viewBox="0 0 145 57" fill="none" xmlns="http://www.w3.org/2000/svg">
<rect x="1" y="1" width="143" height="55" rx="21.5" stroke="#3F41A6" stroke-width="2"/>
<path d="M129 27.268C130.333 28.0378 130.333 29.9622 129 30.732L108 42.8564C106.667 43.6262 105 42.664 105 41.1244V16.8756C105 15.336 106.667 14.3738 108 15.1436L129 27.268Z" fill="#3F41A6"/>
<path d="M32.232 22.436L27.984 30.626V35H25.464V30.626L21.198 22.436H24.042L26.742 28.178L29.424 22.436H32.232ZM38.1134 35.162C37.1534 35.162 36.2894 34.952 35.5214 34.532C34.7534 34.1 34.1474 33.494 33.7034 32.714C33.2714 31.934 33.0554 31.034 33.0554 30.014C33.0554 28.994 33.2774 28.094 33.7214 27.314C34.1774 26.534 34.7954 25.934 35.5754 25.514C36.3554 25.082 37.2254 24.866 38.1854 24.866C39.1454 24.866 40.0154 25.082 40.7954 25.514C41.5754 25.934 42.1874 26.534 42.6314 27.314C43.0874 28.094 43.3154 28.994 43.3154 30.014C43.3154 31.034 43.0814 31.934 42.6134 32.714C42.1574 33.494 41.5334 34.1 40.7414 34.532C39.9614 34.952 39.0854 35.162 38.1134 35.162ZM38.1134 32.966C38.5694 32.966 38.9954 32.858 39.3914 32.642C39.7994 32.414 40.1234 32.078 40.3634 31.634C40.6034 31.19 40.7234 30.65 40.7234 30.014C40.7234 29.066 40.4714 28.34 39.9674 27.836C39.4754 27.32 38.8694 27.062 38.1494 27.062C37.4294 27.062 36.8234 27.32 36.3314 27.836C35.8514 28.34 35.6114 29.066 35.6114 30.014C35.6114 30.962 35.8454 31.694 36.3134 32.21C36.7934 32.714 37.3934 32.966 38.1134 32.966ZM54.5779 25.028V35H52.0399V33.74C51.7159 34.172 51.2899 34.514 50.7619 34.766C50.2459 35.006 49.6819 35.126 49.0699 35.126C48.2899 35.126 47.5999 34.964 46.9999 34.64C46.3999 34.304 45.9259 33.818 45.5779 33.182C45.2419 32.534 45.0739 31.766 45.0739 30.878V25.028H47.5939V30.518C47.5939 31.31 47.7919 31.922 48.1879 32.354C48.5839 32.774 49.1239 32.984 49.8079 32.984C50.5039 32.984 51.0499 32.774 51.4459 32.354C51.8419 31.922 52.0399 31.31 52.0399 30.518V25.028H54.5779ZM59.9983 27.098V31.922C59.9983 32.258 60.0763 32.504 60.2323 32.66C60.4003 32.804 60.6763 32.876 61.0603 32.876H62.2303V35H60.6463C58.5223 35 57.4603 33.968 57.4603 31.904V27.098H56.2723V25.028H57.4603V22.562H59.9983V25.028H62.2303V27.098H59.9983ZM73.4568 25.028V35H70.9188V33.74C70.5948 34.172 70.1688 34.514 69.6408 34.766C69.1248 35.006 68.5608 35.126 67.9488 35.126C67.1688 35.126 66.4788 34.964 65.8788 34.64C65.2788 34.304 64.8048 33.818 64.4568 33.182C64.1208 32.534 63.9528 31.766 63.9528 30.878V25.028H66.4728V30.518C66.4728 31.31 66.6708 31.922 67.0668 32.354C67.4628 32.774 68.0028 32.984 68.6868 32.984C69.3828 32.984 69.9288 32.774 70.3248 32.354C70.7208 31.922 70.9188 31.31 70.9188 30.518V25.028H73.4568ZM78.4632 26.486C78.7872 26.006 79.2312 25.616 79.7952 25.316C80.3712 25.016 81.0252 24.866 81.7572 24.866C82.6092 24.866 83.3772 25.076 84.0612 25.496C84.7572 25.916 85.3032 26.516 85.6992 27.296C86.1072 28.064 86.3112 28.958 86.3112 29.978C86.3112 30.998 86.1072 31.904 85.6992 32.696C85.3032 33.476 84.7572 34.082 84.0612 34.514C83.3772 34.946 82.6092 35.162 81.7572 35.162C81.0132 35.162 80.3592 35.018 79.7952 34.73C79.2432 34.43 78.7992 34.046 78.4632 33.578V35H75.9432V21.68H78.4632V26.486ZM83.7372 29.978C83.7372 29.378 83.6112 28.862 83.3592 28.43C83.1192 27.986 82.7952 27.65 82.3872 27.422C81.9912 27.194 81.5592 27.08 81.0912 27.08C80.6352 27.08 80.2032 27.2 79.7952 27.44C79.3992 27.668 79.0752 28.004 78.8232 28.448C78.5832 28.892 78.4632 29.414 78.4632 30.014C78.4632 30.614 78.5832 31.136 78.8232 31.58C79.0752 32.024 79.3992 32.366 79.7952 32.606C80.2032 32.834 80.6352 32.948 81.0912 32.948C81.5592 32.948 81.9912 32.828 82.3872 32.588C82.7952 32.348 83.1192 32.006 83.3592 31.562C83.6112 31.118 83.7372 30.59 83.7372 29.978ZM97.4124 29.798C97.4124 30.158 97.3884 30.482 97.3404 30.77H90.0504C90.1104 31.49 90.3624 32.054 90.8064 32.462C91.2504 32.87 91.7964 33.074 92.4444 33.074C93.3804 33.074 94.0464 32.672 94.4424 31.868H97.1604C96.8724 32.828 96.3204 33.62 95.5044 34.244C94.6884 34.856 93.6864 35.162 92.4984 35.162C91.5384 35.162 90.6744 34.952 89.9064 34.532C89.1504 34.1 88.5564 33.494 88.1244 32.714C87.7044 31.934 87.4944 31.034 87.4944 30.014C87.4944 28.982 87.7044 28.076 88.1244 27.296C88.5444 26.516 89.1324 25.916 89.8884 25.496C90.6444 25.076 91.5144 24.866 92.4984 24.866C93.4464 24.866 94.2924 25.07 95.0364 25.478C95.7924 25.886 96.3744 26.468 96.7824 27.224C97.2024 27.968 97.4124 28.826 97.4124 29.798ZM94.8024 29.078C94.7904 28.43 94.5564 27.914 94.1004 27.53C93.6444 27.134 93.0864 26.936 92.4264 26.936C91.8024 26.936 91.2744 27.128 90.8424 27.512C90.4224 27.884 90.1644 28.406 90.0684 29.078H94.8024Z" fill="#3F41A6"/>
</svg>
